<?xml version="1.0" standalone="no"?>
<!DOCTYPE svg PUBLIC "-//W3C//DTD SVG 1.1//EN" "http://www.w3.org/Graphics/SVG/1.1/DTD/svg11.dtd" >
<svg xmlns="http://www.w3.org/2000/svg">
<metadata>
Created by FontForge 20120731 at Wed May 10 08:04:11 2017
 By admin
</metadata>
<defs>
<font id="iconfont" horiz-adv-x="1024" >
  <font-face 
    font-family="iconfont"
    font-weight="500"
    font-stretch="normal"
    units-per-em="1024"
    panose-1="2 0 6 3 0 0 0 0 0 0"
    ascent="896"
    descent="-128"
    x-height="792"
    bbox="3 -118 1017.67 887"
    underline-thickness="0"
    underline-position="0"
    unicode-range="U+0078-E6F7"
  />
<missing-glyph 
 />
    <glyph glyph-name=".notdef" 
 />
    <glyph glyph-name=".notdef" 
 />
    <glyph glyph-name=".null" horiz-adv-x="0" 
 />
    <glyph glyph-name="nonmarkingreturn" horiz-adv-x="341" 
 />
    <glyph glyph-name="x" unicode="x" horiz-adv-x="1001" 
d="M281 543q-27 -1 -53 -1h-83q-18 0 -36.5 -6t-32.5 -18.5t-23 -32t-9 -45.5v-76h912v41q0 16 -0.5 30t-0.5 18q0 13 -5 29t-17 29.5t-31.5 22.5t-49.5 9h-133v-97h-438v97zM955 310v-52q0 -23 0.5 -52t0.5 -58t-10.5 -47.5t-26 -30t-33 -16t-31.5 -4.5q-14 -1 -29.5 -0.5
t-29.5 0.5h-32l-45 128h-439l-44 -128h-29h-34q-20 0 -45 1q-25 0 -41 9.5t-25.5 23t-13.5 29.5t-4 30v167h911zM163 247q-12 0 -21 -8.5t-9 -21.5t9 -21.5t21 -8.5q13 0 22 8.5t9 21.5t-9 21.5t-22 8.5zM316 123q-8 -26 -14 -48q-5 -19 -10.5 -37t-7.5 -25t-3 -15t1 -14.5
t9.5 -10.5t21.5 -4h37h67h81h80h64h36q23 0 34 12t2 38q-5 13 -9.5 30.5t-9.5 34.5q-5 19 -11 39h-368zM336 498v228q0 11 2.5 23t10 21.5t20.5 15.5t34 6h188q31 0 51.5 -14.5t20.5 -52.5v-227h-327z" />
    <glyph glyph-name="wenjianjia-zhankai" unicode="&#xe68d;" 
d="M41 712q0 33 24 57.5t58 24.5h256q34 0 58 -24.5t24 -57.5v-21q0 -17 12 -29t29 -12h297q34 0 58 -24t24 -58v-20h-607q-33 0 -61.5 -24t-34.5 -56l-90 -494q-20 0 -33.5 24t-13.5 58v656zM223 447q5 25 26.5 42.5t47.5 17.5h635q26 0 40 -17.5t9 -42.5l-80 -411
q-4 -25 -26 -42.5t-48 -17.5h-696z" />
    <glyph glyph-name="wenjianjia-shouqi" unicode="&#xe68e;" 
d="M41 712q0 33 24 57.5t58 24.5h256q34 0 58 -24.5t24 -57.5v-21q0 -17 12 -29t29 -12h397q34 0 58 -24t24 -58v-512q0 -33 -24 -57.5t-58 -24.5h-778q-34 0 -58 24.5t-24 57.5v656h2z" />
    <glyph glyph-name="tianjia-yin" unicode="&#xe68f;" 
d="M512 845q-94 0 -179 -36.5t-147 -98.5t-98.5 -147t-36.5 -179t36.5 -179t98.5 -147t147 -98.5t179 -36.5t179 36.5t147 98.5t98.5 147t36.5 179t-36.5 179t-98.5 147t-147 98.5t-179 36.5zM748 364h-205v-205q0 -9 -6 -15t-15 -6t-14.5 6t-5.5 15v205h-205q-9 0 -15 5.5
t-6 14.5t6 14.5t15 5.5h205v205q0 9 5.5 15t14.5 6t15 -6t6 -15v-205h205q9 0 14.5 -5.5t5.5 -14.5t-5.5 -14.5t-14.5 -5.5z" />
    <glyph glyph-name="chenggong-yin" unicode="&#xe690;" 
d="M512 845q-94 0 -179 -36.5t-147 -98.5t-98.5 -147t-36.5 -179t36.5 -179t98.5 -147t147 -98.5t179 -36.5t179 36.5t147 98.5t98.5 147t36.5 179t-36.5 179t-98.5 147t-147 98.5t-179 36.5zM772 503l-311 -332l-219 199q-14 13 -2 28q13 14 28 2l191 -170l282 304
q7 6 15 6t14 -6q16 -17 2 -31z" />
    <glyph glyph-name="zhuyi-yin" unicode="&#xe691;" 
d="M971 126l-363 606q-40 66 -95 66t-95 -66l-363 -606q-39 -66 -13 -112t103 -46h738q75 0 100.5 46.5t-12.5 111.5zM524 91q0 -9 -6.5 -15.5t-15.5 -6.5t-16 6.5t-7 15.5v62q0 9 7 15.5t16 6.5t15.5 -6.5t6.5 -15.5v-62zM524 255q0 -9 -6.5 -16t-15.5 -7t-16 7t-7 16v307
q0 9 7 16t16 7t15.5 -7t6.5 -16v-307z" />
    <glyph glyph-name="xinxi-yin" unicode="&#xe692;" 
d="M512 845q-94 0 -179 -36.5t-147 -98.5t-98.5 -147t-36.5 -179t36.5 -179t98.5 -147t147 -98.5t179 -36.5t179 36.5t147 98.5t98.5 147t36.5 179t-36.5 179t-98.5 147t-147 98.5t-179 36.5zM516 118q0 -9 -6.5 -16t-16 -7t-16 7t-6.5 16v327q0 10 6.5 16.5t16 6.5t16 -6.5
t6.5 -16.5v-327zM516 548q0 -9 -6.5 -16t-16 -7t-16 7t-6.5 16v61q0 9 6.5 16t16 7t16 -7t6.5 -16v-61z" />
    <glyph glyph-name="shibai-yin" unicode="&#xe693;" 
d="M512 845q-94 0 -179 -36.5t-147 -98.5t-98.5 -147t-36.5 -179t36.5 -179t98.5 -147t147 -98.5t179 -36.5t179 36.5t147 98.5t98.5 147t36.5 179t-36.5 179t-98.5 147t-147 98.5t-179 36.5zM686 241q6 -7 6 -15t-6 -14t-14 -6t-15 6l-145 145l-145 -145q-7 -6 -15 -6
t-14 6t-6 14t6 15l145 145l-145 145q-6 7 -6 15t6 14t14 6t15 -6l145 -145l145 145q7 6 15 6t14 -6t6 -14t-6 -15l-145 -145z" />
    <glyph glyph-name="bangzhu-yin" unicode="&#xe694;" 
d="M512 -77q94 0 179 36.5t147 98.5t98.5 147t36.5 179t-36.5 179t-98.5 147t-147 98.5t-179 36.5t-179 -36.5t-147 -98.5t-98.5 -147t-36.5 -179t36.5 -179t98.5 -147t147 -98.5t179 -36.5zM532 241q0 -10 -5.5 -15.5t-14.5 -5.5t-14.5 5.5t-5.5 15.5q0 80 61 141
q4 4 24 22t23 21q27 33 27 72q0 46 -33.5 79t-79.5 33t-79.5 -33t-33.5 -79q0 -10 -5.5 -15.5t-14.5 -5.5t-15 5.5t-6 15.5q0 63 45.5 108t108.5 45t108.5 -45t45.5 -108q0 -54 -35 -99q-4 -5 -26 -24.5t-23 -20.5q-52 -48 -52 -112zM512 77q-12 0 -21.5 9t-9.5 21.5
t9.5 21.5t21.5 9t21.5 -9t9.5 -21.5t-9.5 -21.5t-21.5 -9z" />
    <glyph glyph-name="jinzhi-yin" unicode="&#xe695;" 
d="M512 845q-94 0 -179 -36.5t-147 -98.5t-98.5 -147t-36.5 -179t36.5 -179t98.5 -147t147 -98.5t179 -36.5t179 36.5t147 98.5t98.5 147t36.5 179t-36.5 179t-98.5 147t-147 98.5t-179 36.5zM748 364h-451q-9 0 -15 5.5t-6 14.5t6 14.5t15 5.5h451q9 0 14.5 -5.5t5.5 -14.5
t-5.5 -14.5t-14.5 -5.5z" />
    <glyph glyph-name="zhuyi" unicode="&#xe696;" 
d="M479 558q0 9 7 16t16 7t15.5 -7t6.5 -16v-307q0 -9 -6.5 -16t-15.5 -7t-16 7t-7 16v307zM479 148q0 10 7 16.5t16 6.5t15.5 -6.5t6.5 -16.5v-61q0 -9 -6.5 -15.5t-15.5 -6.5t-16 6.5t-7 15.5v61zM868 290q5 -8 3.5 -16t-9 -13t-16 -3t-12.5 9l-289 453q-22 33 -48 32.5
t-46 -34.5l-371 -627q-20 -34 -8.5 -55t51.5 -21h768q38 0 50.5 21.5t-5.5 56.5l-41 74q-5 8 -2.5 16t10.5 12.5t16 2t13 -10.5l41 -73q30 -56 6 -97t-86 -41h-770q-63 0 -86.5 42t8.5 96l371 626q32 54 81 55t83 -53z" />
    <glyph glyph-name="chenggong" unicode="&#xe697;" 
d="M938 155q-5 -8 -13 -10.5t-15.5 2t-10 12.5t1.5 16q44 79 53 167t-14 168t-77.5 150t-133.5 113q-78 44 -166.5 53t-168.5 -14t-150 -77.5t-113 -133t-52 -167t14 -168.5t77.5 -150t132.5 -113q116 -64 245 -54.5t234 87.5q6 4 15 3t14 -7t3.5 -15t-7.5 -14
q-114 -85 -255.5 -95.5t-266.5 58.5q-86 48 -146 124.5t-85 164t-15 183.5t57 182q48 86 124.5 145.5t164 84.5t183.5 15t182 -57t145.5 -123t84.5 -163.5t15.5 -184t-57.5 -182.5zM291 398l190 -170l283 303q6 7 14 7t14.5 -6.5t6.5 -14.5t-6 -14l-312 -332l-219 199
q-13 13 -2 28q14 14 31 0z" />
    <glyph glyph-name="xinxi" unicode="&#xe698;" 
d="M492 445q0 10 6.5 16.5t15.5 6.5t16 -6.5t7 -16.5v-327q0 -9 -7 -16t-16 -7t-15.5 7t-6.5 16v327zM492 609q0 9 6.5 16t15.5 7t16 -7t7 -16v-61q0 -9 -7 -16t-16 -7t-15.5 7t-6.5 16v61zM928 155q-5 -8 -13 -10.5t-16 2t-10.5 12.5t2.5 16q44 79 53 167t-14 168t-78 150
t-133 113q-79 44 -167 53t-168 -14t-150 -77.5t-113 -133.5q-44 -78 -53 -166.5t14 -168.5t77.5 -150t133.5 -113q116 -64 245 -54.5t234 87.5q6 4 15 3t13.5 -7t3.5 -15t-7 -14q-115 -85 -256.5 -95.5t-266.5 58.5q-86 48 -145.5 124.5t-84.5 164t-15.5 183.5t57.5 182
t124.5 145.5t164 84.5t183.5 15t181 -57q86 -47 146 -123t85 -163.5t15 -184t-57 -182.5z" />
    <glyph glyph-name="bangzhu" unicode="&#xe699;" 
d="M928 155q-5 -8 -13 -10.5t-16 2t-10.5 12.5t2.5 16q44 79 53 167t-14 168t-78 150t-133.5 113t-166.5 52t-168 -14t-150 -77.5t-113 -132.5t-52 -166.5t14 -168.5t77 -150t133 -113q116 -64 245 -54.5t234 87.5q6 4 15 3t13.5 -7t3.5 -15t-7 -14q-115 -85 -256.5 -95.5
t-266.5 58.5q-86 48 -145.5 124.5t-84.5 164t-15.5 183.5t57.5 182t124.5 145.5t164 84.5t183.5 15t181 -57q86 -47 146 -123t85 -163.5t15 -184t-57 -182.5zM543 241q0 -10 -6 -15.5t-15 -5.5t-14.5 5.5t-5.5 15.5q0 80 61 141q5 4 24.5 22t22.5 21q27 33 27 72
q0 46 -33.5 79t-79.5 33t-79 -33t-33 -79q0 -10 -6 -15.5t-15 -5.5t-14.5 5.5t-5.5 15.5q0 63 45 108t108 45t108.5 -45t45.5 -108q0 -54 -35 -99q-4 -5 -26 -24.5t-23 -20.5q-51 -48 -51 -112zM522.5 77q-12.5 0 -21.5 9t-9 21.5t9 21.5t21.5 9t21.5 -9t9 -21.5t-9 -21.5
t-21.5 -9z" />
    <glyph glyph-name="shibai" unicode="&#xe69a;" 
d="M481 386l-145 145q-6 7 -6 15t6 14t14 6t15 -6l145 -145l145 145q7 6 15 6t14 -6t6 -14t-6 -15l-145 -145l145 -145q6 -7 6 -15t-6 -14t-14 -6t-15 6l-145 145l-145 -145q-7 -6 -15 -6t-14 6t-6 14t6 15zM928 155q-5 -8 -13 -10.5t-16 2t-10.5 12.5t2.5 16q44 79 53 167
t-14 168t-78 150t-133.5 113t-166.5 52t-168 -14t-150 -77.5t-113 -132.5t-52 -166.5t14 -168.5t77 -150t133 -113q116 -64 245 -54.5t234 87.5q6 4 15 3t13.5 -7t3.5 -15t-7 -14q-115 -85 -256.5 -95.5t-266.5 58.5q-86 48 -145.5 124.5t-84.5 164t-15.5 183.5t57.5 182
t124.5 145.5t164 84.5t183.5 15t181 -57q86 -47 146 -123t85 -163.5t15 -184t-57 -182.5z" />
    <glyph glyph-name="tianjia" unicode="&#xe69b;" 
d="M487 409v204q0 10 6 15.5t15 5.5t14.5 -5.5t5.5 -15.5v-204h205q9 0 15 -6t6 -15t-6 -14.5t-15 -5.5h-205v-205q0 -9 -5.5 -15t-14.5 -6t-15 6t-6 15v205h-204q-10 0 -15.5 5.5t-5.5 14.5t5.5 15t15.5 6h204zM928 155q-5 -8 -13 -10.5t-16 2t-10.5 12.5t2.5 16
q44 79 53 167t-14 168t-78 150t-133.5 113t-166.5 52t-168 -14t-150 -77.5t-113 -132.5q-44 -78 -53 -166.5t14 -168.5t77.5 -150t133.5 -113q116 -64 245 -54.5t234 87.5q6 4 15 3t13.5 -7t3.5 -15t-7 -14q-115 -85 -256.5 -95.5t-266.5 58.5q-86 48 -145.5 124.5
t-84.5 164t-15.5 183.5t57.5 182t124.5 145.5t164 84.5t183.5 15t181 -57q86 -47 146 -123t85 -163.5t15 -184t-57 -182.5z" />
    <glyph glyph-name="yonghu-" unicode="&#xe69c;" 
d="M438 392q-34 21 -55 56t-21 75q0 63 45.5 108.5t108.5 45.5t108.5 -45.5t45.5 -108.5q0 -40 -21 -75t-55 -56q73 -25 119.5 -89t46.5 -144q0 -9 -5.5 -15t-15 -6t-15 6t-5.5 15q0 84 -60 144.5t-144.5 60.5t-145 -60.5t-60.5 -144.5q0 -9 -5.5 -15t-14.5 -6t-15 6t-6 15
q3 80 50 144t120 89zM928 155q-5 -8 -13 -10.5t-16 2t-10.5 12.5t2.5 16q44 79 53 167t-14 168t-78 150t-133 113q-79 44 -167 53t-168 -14t-150 -77.5t-113 -133.5q-44 -78 -53 -166.5t14 -168.5t77.5 -150t133.5 -113q116 -64 245 -54.5t234 87.5q6 4 15 3t13.5 -7
t3.5 -15t-7 -14q-115 -85 -256.5 -95.5t-266.5 58.5q-86 48 -145.5 124.5t-84.5 164t-15.5 183.5t57.5 182t124.5 145.5t164 84.5t183.5 15t181 -57q86 -47 146 -123t85 -163.5t15 -184t-57 -182.5zM518 411q46 0 79.5 33t33.5 79t-33.5 79.5t-79.5 33.5t-79 -33.5
t-33 -79.5t32.5 -79t79.5 -33z" />
    <glyph glyph-name="shaixuanyonghu" unicode="&#xe69d;" 
d="M399 370q-61 31 -98 89.5t-37 129.5q0 101 72.5 173.5t173.5 72.5t173.5 -72.5t72.5 -173.5q0 -71 -37 -129.5t-98 -89.5q7 -2 20 -6.5t21 -6.5q7 -3 11 -11t1 -15.5t-11 -11.5t-16 -1q-64 25 -137 25q-106 0 -195.5 -52t-141.5 -141.5t-52 -195.5q0 -9 -5.5 -15t-15 -6
t-15 6t-5.5 15q0 148 90 263t229 153zM727 110v-105q0 -9 -5.5 -14.5t-15 -5.5t-15 5.5t-5.5 14.5v90l-100 123q-19 23 -9 44.5t39 21.5h297q31 0 40 -21.5t-11 -44.5l-106 -123v-139q0 -9 -6 -15t-15 -6t-14.5 6t-5.5 15v154l114 131h-291zM509.5 384q84.5 0 145 60
t60.5 144.5t-60.5 145t-145 60.5t-144.5 -60.5t-60 -145t60 -144.5t144.5 -60z" />
    <glyph glyph-name="qunzu" unicode="&#xe69e;" 
d="M508 372q-59 26 -96 82.5t-37 124.5q0 93 65.5 159t159.5 66t159.5 -66t65.5 -159q0 -68 -36.5 -123.5t-96.5 -83.5q133 -31 220 -140t87 -249q0 -10 -5.5 -15.5t-14.5 -5.5t-15 5.5t-6 15.5q0 97 -47.5 179.5t-130 130.5t-180.5 48t-180.5 -48t-130 -130.5t-47.5 -179.5
q0 -10 -6 -15.5t-15 -5.5t-14.5 5.5t-5.5 15.5q0 141 86.5 249.5t220.5 139.5zM389 378v-2q0 -9 -5.5 -15t-14.5 -6q-128 0 -218 -89.5t-90 -217.5q0 -9 -5.5 -14.5t-14.5 -5.5t-15 5.5t-6 14.5q0 118 72 211.5t182 124.5q-50 27 -80 75.5t-30 106.5q0 85 60 145t145 60
q9 0 14.5 -5.5t5.5 -15t-5.5 -15t-14.5 -5.5q-68 0 -116 -48t-48 -115.5t48 -116t116 -48.5q9 0 14.5 -5.5t5.5 -14.5v-4zM598 394q77 0 130.5 54t53.5 130.5t-53.5 130.5t-130.5 54t-130.5 -54t-53.5 -130q0 -77 54 -131t130 -54z" />
    <glyph glyph-name="guanliyuan" unicode="&#xe69f;" 
d="M315 388q-62 31 -99.5 90t-37.5 131q0 102 72.5 174t173.5 72t173.5 -72t72.5 -174q0 -100 -69 -171t-169 -74h-2q-100 0 -185 -49.5t-134.5 -134.5t-49.5 -185q0 -9 -5.5 -15t-14.5 -6t-15 6t-6 15q0 138 83 247t212 146zM423.5 404q84.5 0 145 60.5t60.5 145
t-60.5 144.5t-145 60t-144.5 -60t-60 -144.5t60 -145t144.5 -60.5zM985 269l4 -10l-49 -59q-6 -8 -6 -19t6 -18l49 -58l-4 -10q-18 -50 -45 -80l-8 -8l-76 12q-9 2 -18.5 -3.5t-12.5 -14.5l-26 -74l-11 -2q-58 -12 -116 0l-13 2l-24 72q-3 9 -12.5 14.5t-18.5 3.5l-78 -12
l-8 8q-14 15 -24 35q-16 27 -21 47l-4 10l51 58q6 7 6 17.5t-6 17.5l-49 59l4 10q14 43 47 82l8 8l74 -12q9 -1 18.5 4t14.5 15l27 71l10 2q56 13 114 0l13 -2l24 -69q4 -10 13.5 -16t19.5 -5l76 10l8 -8q18 -22 25 -37q3 -5 18 -41zM928 294q-5 10 -15 22l-53 -6
q-24 -3 -46 10.5t-30 36.5l-16 47q-37 7 -74 0l-18 -49q-8 -23 -30.5 -36t-47.5 -9l-51 8q-10 -11 -29 -49l35 -41q15 -18 15 -43.5t-15 -44.5l-35 -41q6 -14 14 -28q7 -13 15 -21l55 8q25 3 46.5 -10.5t29.5 -36.5l16 -49q38 -6 76 0l18 51q8 23 30.5 36.5t45.5 8.5l51 -8
q20 27 27 49l-33 39q-15 19 -16 44.5t14 43.5l35 41q-8 17 -14 27zM731 89q-38 0 -65 27t-27 65.5t27 65t65.5 26.5t65 -26.5t26.5 -65.5q0 -38 -27.5 -65t-64.5 -27zM731.5 130q21.5 0 36 15t14.5 36.5t-14.5 36t-36 14.5t-36.5 -14.5t-15 -36t15 -36.5t36.5 -15z" />
    <glyph glyph-name="yonghu" unicode="&#xe6a0;" 
d="M410 370q-62 31 -99 89.5t-37 129.5q0 101 72.5 173.5t174 72.5t173.5 -72.5t72 -173.5q0 -71 -37 -129.5t-98 -89.5q139 -38 229 -153t90 -263q0 -9 -5.5 -15t-14.5 -6t-15 6t-6 15q0 106 -52 195.5t-141.5 141.5t-195.5 52t-195.5 -52t-141.5 -141.5t-52 -195.5
q0 -9 -5.5 -15t-15 -6t-15 6t-5.5 15q0 148 90 263t230 153zM520.5 384q84.5 0 144.5 60t60 144.5t-60 145t-144.5 60.5t-145 -60.5t-60.5 -145t60.5 -144.5t145 -60z" />
    <glyph glyph-name="tianjiayonghu" unicode="&#xe6a1;" 
d="M399 370q-61 31 -98 89.5t-37 129.5q0 101 72.5 173.5t173.5 72.5t173.5 -72.5t72.5 -173.5q0 -71 -37 -129.5t-98 -89.5q47 -14 86 -33q7 -5 9.5 -13t-1.5 -14q-5 -6 -12.5 -9t-14.5 1q-83 43 -178 43q-106 0 -195.5 -52t-141.5 -141.5t-52 -195.5q0 -9 -5.5 -15t-15 -6
t-15 6t-5.5 15q0 146 90 261t229 153zM735 151v151q0 9 7 16t16 7t15.5 -7t6.5 -16v-151h156q9 0 15.5 -7t6.5 -16t-6.5 -16t-15.5 -7h-156v-143q0 -9 -6.5 -15.5t-15.5 -6.5t-16 6.5t-7 15.5v143h-141q-9 0 -16 7t-7 16t7 16t16 7h141zM509.5 384q84.5 0 145 60t60.5 144.5
t-60.5 145t-145 60.5t-144.5 -60.5t-60 -145t60 -144.5t144.5 -60z" />
    <glyph glyph-name="chexiao" unicode="&#xe6a2;" 
d="M135 620h463q132 0 224.5 -93t92.5 -225t-92.5 -224.5t-224.5 -92.5h-209q-9 0 -14.5 -6t-5.5 -15t5.5 -14.5t14.5 -5.5h209q98 0 180.5 47.5t130 130t47.5 180.5t-47.5 180.5t-130 130t-180.5 47.5h-463l139 140q7 6 7 14t-6.5 14.5t-14.5 6.5t-14 -7l-174 -174
q-6 -6 -6 -14t6 -14l174 -174q6 -7 14 -7t14.5 6.5t6.5 14.5t-7 14z" />
    <glyph glyph-name="fanhui" unicode="&#xe6a3;" 
d="M889 620h-463q-132 0 -224.5 -93t-92.5 -225t92.5 -224.5t224.5 -92.5h209q9 0 14.5 -6t5.5 -15t-5.5 -14.5t-14.5 -5.5h-209q-98 0 -180.5 47.5t-130 130t-47.5 180.5t47.5 180.5t130 130t180.5 47.5h463l-139 140q-7 6 -7 14t6.5 14.5t14.5 6.5t14 -7l174 -174
q6 -6 6 -14t-6 -14l-174 -174q-6 -7 -14 -7t-14.5 6.5t-6.5 14.5t7 14z" />
    <glyph glyph-name="shuaxin" unicode="&#xe6a4;" 
d="M82 261h194q10 0 15.5 -5.5t5.5 -15t-5.5 -15t-15.5 -5.5h-161q52 -117 161 -188.5t240 -71.5q138 0 251 78.5t161 206.5q3 8 11 11.5t15.5 0.5t11.5 -11t1 -16q-53 -140 -176 -225.5t-275 -85.5q-134 0 -248 69t-176 185v-135q0 -9 -5.5 -15t-15 -6t-15 6t-5.5 15v205
q0 8 6 14t15 6h10v-2zM942 507h-194q-10 0 -15.5 5.5t-5.5 15t5.5 15t15.5 5.5h161q-52 117 -161 188.5t-240 71.5q-138 0 -251 -78.5t-161 -206.5q-3 -8 -11 -11.5t-15.5 -0.5t-11.5 11t-1 16q53 140 176 225.5t275 85.5q134 0 248 -69t176 -185v135q0 9 5.5 15t15 6t15 -6
t5.5 -15v-205q0 -8 -6 -14t-15 -6h-10v2z" />
    <glyph glyph-name="lingcun" unicode="&#xe6a5;" 
d="M909 312l-100 109q-13 13 2 29q13 13 29 -3l112 -122q6 -7 6 -15t-6 -14l-112 -123q-14 -13 -29 -2q-13 13 -2 29zM690 835q9 0 15 -6t6 -15t-6 -14.5t-15 -5.5h-532q-26 0 -44 -18t-18 -44v-706q0 -27 18 -44.5t44 -17.5h706q26 0 44 17.5t18 44.5v102q0 9 5.5 14.5
t14.5 5.5t15 -5.5t6 -14.5v-102q0 -43 -30 -73t-73 -30h-706q-43 0 -73 30t-30 73v706q0 43 30 73t73 30h532zM936 333q9 0 14.5 -5.5t5.5 -15t-5.5 -15t-14.5 -5.5h-655q-10 0 -15.5 5.5t-5.5 15t5.5 15t15.5 5.5h655zM256 835h451q26 0 43.5 -18t17.5 -44v-287
q0 -26 -17.5 -43.5t-43.5 -17.5h-390q-26 0 -43.5 17.5t-17.5 43.5v349zM297 486q0 -8 6 -14t14 -6h390q8 0 14 6t6 14v287q0 8 -6 14.5t-14 6.5h-410v-308zM598 701q0 10 5.5 15.5t15 5.5t15 -5.5t5.5 -15.5v-122q0 -10 -5.5 -15.5t-15 -5.5t-15 5.5t-5.5 15.5v122z" />
    <glyph glyph-name="baocun" unicode="&#xe6a6;" 
d="M768 794v-308q0 -26 -17.5 -43.5t-43.5 -17.5h-390q-26 0 -43.5 17.5t-17.5 43.5v308h-92q-26 0 -44 -18t-18 -44v-706q0 -27 18 -44.5t44 -17.5h706q27 0 44.5 17.5t17.5 44.5v104q0 9 5.5 15t15 6t15 -6t5.5 -15v-104q0 -43 -30 -73t-73 -30h-706q-43 0 -73 30t-30 73
v706q0 43 30 73t73 30h706q43 0 73 -30t30 -73v-418q0 -9 -5.5 -14.5t-15 -5.5t-15 5.5t-5.5 14.5v418q0 26 -17.5 44t-44.5 18h-102zM297 794v-308q0 -8 6 -14t14 -6h390q8 0 14 6t6 14v308h-430zM598 701q0 10 5.5 15.5t15 5.5t15 -5.5t5.5 -15.5v-122q0 -10 -5.5 -15.5
t-15 -5.5t-15 5.5t-5.5 15.5v122z" />
    <glyph glyph-name="shouqi" unicode="&#xe6a7;" 
d="M618 470h168q10 0 15.5 -5.5t5.5 -15t-5.5 -15t-15.5 -5.5h-219q-9 0 -14.5 5.5t-5.5 15.5v2v206q0 10 5.5 15.5t15 5.5t15 -5.5t5.5 -15.5v-163l211 198q6 6 14 6t14.5 -6t6.5 -14t-7 -14zM426 298h-168q-9 0 -14.5 5.5t-5.5 15t5.5 15t14.5 5.5h219q9 0 15 -5.5
t6 -15.5v-208q0 -10 -6 -15.5t-15 -5.5t-14.5 5.5t-5.5 15.5v163l-211 -198q-6 -6 -14.5 -6t-14.5 6t-6 14t6 14zM942 323q0 -10 -5.5 -15.5t-15 -5.5t-15 5.5t-5.5 15.5v389q0 26 -17.5 43.5t-43.5 17.5h-656q-26 0 -43.5 -17.5t-17.5 -43.5v-656q0 -26 17.5 -43.5
t43.5 -17.5h656q26 0 43.5 17.5t17.5 43.5v95q0 9 5.5 14.5t15 5.5t15 -5.5t5.5 -14.5v-95q0 -43 -29.5 -72.5t-72.5 -29.5h-656q-43 0 -72.5 29.5t-29.5 72.5v656q0 43 29.5 72.5t72.5 29.5h656q43 0 72.5 -29.5t29.5 -72.5v-389z" />
    <glyph glyph-name="zhankai" unicode="&#xe6a8;" 
d="M291 122h168q9 0 14.5 -5.5t5.5 -15t-5.5 -15t-14.5 -5.5h-219q-10 0 -15.5 5.5t-5.5 14.5v2v207q0 9 5.5 15t15 6t15 -6t5.5 -15v-164l211 199q6 6 14.5 6t14.5 -6t6 -14t-6 -15zM754 646h-168q-9 0 -15 5.5t-6 15t6 15t15 5.5h219q9 0 14.5 -5.5t5.5 -14.5v-209
q0 -9 -5.5 -15t-14.5 -6t-15 6t-6 15v164l-211 -199q-6 -6 -14 -6t-14 6t-6 14t6 15zM942 323q0 -10 -5.5 -15.5t-15 -5.5t-15 5.5t-5.5 15.5v389q0 26 -17.5 43.5t-43.5 17.5h-656q-26 0 -43.5 -17.5t-17.5 -43.5v-656q0 -26 17.5 -43.5t43.5 -17.5h656q26 0 43.5 17.5
t17.5 43.5v95q0 9 5.5 14.5t15 5.5t15 -5.5t5.5 -14.5v-95q0 -43 -29.5 -72.5t-72.5 -29.5h-656q-43 0 -72.5 29.5t-29.5 72.5v656q0 43 29.5 72.5t72.5 29.5h656q43 0 72.5 -29.5t29.5 -72.5v-389z" />
    <glyph glyph-name="suo" unicode="&#xe6a9;" 
d="M184 425v102q0 89 44 164.5t119.5 119.5t164.5 44t164.5 -44t119.5 -119.5t44 -164.5v-102h41q17 0 29 -12t12 -29v-430q0 -17 -12 -29t-29 -12h-738q-17 0 -29 12t-12 29v430q0 17 12 29t29 12h41zM225 425h574v102q0 119 -84.5 203t-202.5 84t-202.5 -84t-84.5 -203
v-102zM532 163v-86q0 -9 -5.5 -15t-14.5 -6t-14.5 6t-5.5 15v86q-14 6 -22.5 19t-8.5 28q0 21 14.5 36t36.5 15t36.5 -15t14.5 -36q0 -15 -8.5 -28t-22.5 -19zM881 -46v430h-738v-430h738z" />
    <glyph glyph-name="jiesuo" unicode="&#xe6aa;" 
d="M532 163v-86q0 -9 -5.5 -15t-14.5 -6t-14.5 6t-5.5 15v86q-14 6 -22.5 19t-8.5 28q0 21 14.5 36t36.5 15t36.5 -15t14.5 -36q0 -15 -8.5 -28t-22.5 -19zM184 425v102q0 89 44 164.5t119.5 119.5t164.5 44t164.5 -44t119.5 -119.5t44 -164.5q0 -9 -6 -14.5t-15 -5.5
t-14.5 5.5t-5.5 14.5q0 119 -84.5 203t-202.5 84t-202.5 -84t-84.5 -203v-102h656q17 0 29 -12t12 -29v-430q0 -17 -12 -29t-29 -12h-738q-17 0 -29 12t-12 29v430q0 17 12 29t29 12h41zM881 -46v430h-738v-430h738z" />
    <glyph glyph-name="xiazai1" unicode="&#xe6ab;" 
d="M492 38l-109 106q-6 7 -14.5 7t-14.5 -6.5t-6 -14.5t6 -14l140 -135q0 -5 4 -9q6 -6 16 -6t16 6q5 4 5 9l139 135q6 6 6 14t-6 14.5t-14.5 6.5t-14.5 -7l-110 -108v368q0 10 -6 15.5t-15 5.5t-14.5 -5.5t-5.5 -15.5v-366h-2zM92 382v307q0 34 24 58t58 24h676
q34 0 58 -24t24 -58v-307q0 -34 -24 -58t-58 -24h-96q-10 0 -15.5 -5.5t-5.5 -15t5.5 -15t15.5 -5.5h96q51 0 87 36t36 87v307q0 51 -36 87t-87 36h-676q-51 0 -87 -36t-36 -87v-307q0 -51 36 -87t87 -36v41h-4v-41h102q10 0 15.5 5.5t5.5 15t-5.5 15t-15.5 5.5h-98
q-34 0 -58 24t-24 58zM389 620q-9 0 -14.5 -6t-5.5 -15t5.5 -14.5t14.5 -5.5h246q9 0 14.5 5.5t5.5 14.5t-5.5 15t-14.5 6h-246z" />
    <glyph glyph-name="shangchuan" unicode="&#xe6ac;" 
d="M492 730v-366q0 -10 5.5 -15.5t14.5 -5.5t14.5 5.5t5.5 15.5v370l111 -108q6 -6 14.5 -6t14.5 6t6 14t-6 14l-140 136q0 4 -4 8q-6 6 -16 6t-16 -6q-4 -4 -4 -8l-140 -136q-6 -6 -6 -14t6 -14t14.5 -6t14.5 6zM272 468q10 0 15.5 5.5t5.5 15t-5.5 15t-15.5 5.5h-102v-41
h4v41q-51 0 -87 -36t-36 -87v-307q0 -51 36 -87t87 -36h676q51 0 87 36t36 87v307q0 51 -36 87t-87 36h-96q-10 0 -15.5 -5.5t-5.5 -15t5.5 -15t15.5 -5.5h96q34 0 58 -24t24 -58v-307q0 -34 -24 -58t-58 -24h-676q-34 0 -58 24t-24 58v307q0 34 24 58t58 24v41h-4v-41h102z
M389 189q-9 0 -14.5 -5.5t-5.5 -14.5t5.5 -15t14.5 -6h246q9 0 14.5 6t5.5 15t-5.5 14.5t-14.5 5.5h-246z" />
    <glyph glyph-name="fabu" unicode="&#xe6ad;" 
d="M891 755l-96 -756q0 -6 -2 -6.5t-9 2.5l-211 123q-7 4 -15.5 1.5t-13 -10t-2 -15.5t10.5 -13l211 -123q24 -14 45.5 -3.5t26.5 38.5l102 799q3 29 -16 42.5t-45 0.5l-779 -412q-26 -14 -26 -37.5t24 -38.5l170 -102q8 -5 16 -3t13 9q4 8 2 16t-8 13l-170 102l-4 2
q-1 1 0 1q2 0 4 1l739 391l-459 -590v-231q0 -9 6 -15t15 -6t14.5 6t5.5 15v219z" />
    <glyph glyph-name="bianji" unicode="&#xe6ae;" 
d="M532 581l-305 -306l-47 -219l219 47l306 306zM561 609l174 -174l117 117l-174 174zM676 783l231 -231l-487 -490l-293 -61l61 293z" />
    <glyph glyph-name="biaoqian" unicode="&#xe6af;" 
d="M741 288q7 6 15 6t14 -6t6 -14.5t-6 -14.5l-276 -276q-32 -31 -73.5 -30.5t-72.5 30.5l-246 245q-30 31 -30 73t30 73l404 403q15 16 38.5 25.5t45.5 9.5l241 2q43 0 73 -29.5t30 -72.5l-2 -242q0 -21 -10.5 -45.5t-24.5 -38.5l-37 -37q-6 -6 -14 -6t-14.5 6t-6.5 14.5
t6 14.5l37 37q9 9 16 25.5t7 29.5l2 242q0 26 -17.5 43.5t-44.5 17.5l-241 -2q-13 0 -29.5 -6.5t-25.5 -15.5l-404 -404q-18 -18 -18 -43.5t18 -42.5l246 -246q18 -18 43.5 -18t42.5 18zM555 435q-35 36 -35 86.5t35 87.5q36 37 86.5 36.5t87.5 -36.5q35 -35 35 -86t-35 -88
q-37 -37 -88 -37t-86 37zM584 464q24 -25 58 -25t58.5 24.5t24.5 58.5t-24.5 58.5t-58.5 24.5t-58.5 -24.5t-24.5 -59t25 -57.5z" />
    <glyph glyph-name="fenxiang" unicode="&#xe6b0;" 
d="M639 110l-287 139q-54 -68 -137 -68q-72 0 -123 51t-51 123.5t51 123t123 50.5q78 0 131 -59l279 160q-31 81 10 155q37 67 110.5 88t139.5 -16q61 -34 84 -101.5t-4 -131.5q-3 -8 -11 -11t-16 0t-10.5 11t0.5 16q21 51 3.5 103t-65.5 79q-52 29 -108.5 13t-85.5 -68
t-13 -108.5t68 -86.5q61 -35 125 -6q8 3 16 0.5t11 -10.5t0 -16t-11 -11q-79 -34 -161 9q-36 19 -64 57l-274 -160q20 -41 20 -80q0 -35 -16 -71l280 -136q22 43 64 69t92 26q72 0 123 -51t51 -123.5t-51 -123t-123 -50.5t-123 50.5t-51 123.5q0 12 4 41zM215 222
q55 0 94 39t39 94.5t-39 94t-94 38.5t-94 -38.5t-39 -94t39 -94.5t94 -39zM809 -65q55 0 94 39t39 94.5t-39 94.5t-94 39t-94 -39t-39 -94.5t39 -94.5t94 -39z" />
    <glyph glyph-name="jihe" unicode="&#xe6b1;" 
d="M514 355l326 187l-330 207l-326 -203zM104 544l406 254l408 -256l-406 -234zM903 407q8 4 16 1.5t12.5 -10t2 -16t-9.5 -12.5l-412 -236l-412 238q-16 9 -8 28q3 8 12 10t17 -1l391 -226zM121 243l391 -226l391 226q8 4 16 1.5t12.5 -10t2 -15.5t-9.5 -13l-412 -238
l-412 238q-16 9 -8 28q3 8 12 10.5t17 -1.5z" />
    <glyph glyph-name="shaixuan" unicode="&#xe6b2;" 
d="M911 677q43 47 25.5 87t-82.5 40h-684q-65 0 -83 -39t24 -88l251 -299v-281q0 -9 6 -14.5t15 -5.5t14.5 5.5t5.5 14.5v295l-262 311q-50 60 29 60h686q37 0 44 -15t-17 -42l-279 -314v-407q0 -10 5.5 -15.5t15 -5.5t15 5.5t5.5 15.5v391z" />
    <glyph glyph-name="sousuo1" unicode="&#xe6b3;" 
d="M662 714q-75 62 -169.5 78t-185 -16.5t-153.5 -106.5q-64 -76 -80.5 -171t16 -185t107.5 -152q82 -69 188 -81.5t203 34.5q7 3 10 11t0 15.5t-11 10.5t-16 0q-84 -42 -178 -31.5t-168 71.5q-66 56 -94.5 136t-14 164.5t69.5 150.5q57 67 137 96t163.5 14.5t150 -69.5
t95.5 -135.5t14 -164.5t-70 -151l-12 -14l14 -12l12 -12l33 -33q17 -17 50.5 -50t49.5 -49l2 -2l99 -98q6 -6 14 -6t14 6t6 14.5t-6 14.5l-98 98l-2 2q-66 66 -100 98q-23 23 -33 31q55 76 68 168t-20 178.5t-105 147.5z" />
    <glyph glyph-name="shoucang" unicode="&#xe6b4;" 
d="M739 83q-1 8 4 15.5t12.5 9t15.5 -3.5t9 -13l13 -65q4 -30 -15 -43.5t-45 0.5l-221 112l-219 -114q-26 -14 -45 -0.5t-15 43.5l41 243l-178 172q-21 22 -14 43.5t37 26.5l246 35l110 221q14 26 37 26t37 -26l110 -221l246 -35q30 -5 37 -26.5t-14 -43.5l-178 -172l12 -65
q1 -8 -4 -15.5t-12.5 -9t-15.5 3.5t-9 13l-14 86l192 188l-266 39l-121 242l-119 -242l-266 -39l192 -188l-45 -265l238 125l238 -125z" />
    <glyph glyph-name="shanchu1" unicode="&#xe6b5;" 
d="M348 742v31q0 29 21.5 50.5t50.5 21.5h205q29 0 50 -21.5t21 -50.5v-31h277q9 0 14.5 -5.5t5.5 -14.5t-5.5 -15t-14.5 -6h-922q-9 0 -14.5 6t-5.5 15t5.5 14.5t14.5 5.5h297zM184 640q0 9 6 14.5t15 5.5t14.5 -5.5t5.5 -14.5v-635q0 -17 12 -29t29 -12h492q17 0 29 12
t12 29v635q0 9 5.5 14.5t14.5 5.5t15 -5.5t6 -14.5v-635q0 -34 -24 -58t-58 -24h-492q-34 0 -58 24t-24 58v635zM492 517q0 9 5.5 15t14.5 6t14.5 -6t5.5 -15v-450q0 -10 -5.5 -15.5t-14.5 -5.5t-14.5 5.5t-5.5 15.5v450zM655 517q0 9 6 15t15 6t14.5 -6t5.5 -15v-450
q0 -10 -5.5 -15.5t-14.5 -5.5t-15 5.5t-6 15.5v450zM328 517q0 9 5.5 15t14.5 6t15 -6t6 -15v-450q0 -10 -6 -15.5t-15 -5.5t-14.5 5.5t-5.5 15.5v450zM655 742v31q0 12 -9 21.5t-21 9.5h-205q-12 0 -21.5 -9.5t-9.5 -21.5v-31h266z" />
    <glyph glyph-name="tuding" unicode="&#xe6b6;" 
d="M217 429l346 -346l72 72q-23 23 -23.5 56.5t21.5 57.5l252 279v2l-201 201h-2l-279 -252q-24 -22 -57 -21.5t-57 23.5zM664 126l-72 -72q-12 -12 -29.5 -12t-27.5 12l-347 346q-12 13 -12 29t12 29l72 71q12 13 28.5 13t28.5 -11q14 -12 31 -12t29 10l278 252
q12 11 30 10.5t30 -12.5l200 -200q13 -13 13 -30.5t-10 -29.5l-252 -278q-11 -13 -11 -29t11 -29q9 -13 8.5 -29.5t-10.5 -27.5zM299 208q6 6 14.5 6t14.5 -6t6 -14.5t-6 -14.5l-195 -194q-6 -7 -14 -7t-14.5 6.5t-6.5 14.5t6 14z" />
    <glyph glyph-name="tuodong" unicode="&#xe6b7;" 
d="M877 366h-273q-9 0 -14.5 5.5t-5.5 14.5t5.5 15t14.5 6h273l-113 112q-6 6 -6 14.5t6 14.5t14 6t15 -6l145 -146q2 -2 6 -10q4 -15 -4 -22l-145 -146q-7 -6 -15 -6t-14 6t-6 14.5t6 14.5zM135 366l111 -111q6 -6 6 -14.5t-6 -14.5t-14.5 -6t-14.5 6l-145 146
q-11 10 -4 22q0 4 6 10l145 146q6 6 14.5 6t14.5 -6t6 -14.5t-6 -14.5l-113 -112h273q9 0 14.5 -6t5.5 -15t-5.5 -14.5t-14.5 -5.5h-273v-2zM492 30v272q0 9 5.5 15t14.5 6t14.5 -6t5.5 -15v-272l113 112q6 6 14.5 6t14.5 -6t6 -14t-6 -14l-146 -146q-2 -2 -10 -6
q-15 -4 -22 4l-146 146q-6 6 -6 14t6 14t14.5 6t14.5 -6zM492 751l-111 -111q-6 -6 -14.5 -6t-14.5 6t-6 14.5t6 14.5l146 145q10 10 22 4q4 0 10 -6l146 -145q6 -7 6 -15t-6 -14t-14.5 -6t-14.5 6l-112 113v-273q0 -9 -6 -14.5t-15 -5.5t-14.5 5.5t-5.5 14.5v273h-2z" />
    <glyph glyph-name="xihuan" unicode="&#xe6b8;" 
d="M522 44l-336 354q-4 4 -8 11q-9 12 -18 30q-57 107 2 201q28 49 78 72q56 26 118 16q7 -2 13 -2q8 -3 15.5 1t8.5 13q3 8 -1 15.5t-13 9.5q-4 0 -16 4q-78 14 -144 -20q-55 -28 -94 -89q-72 -112 -4 -241q18 -34 31 -49l352 -371l14 -14l375 374q19 19 35 57t20 79
q13 118 -71 202q-51 51 -110 67t-114 3t-110 -49q-31 -22 -107 -101l-12 -12q-25 -24 -74 -78q-8 -10 -24 -26q-9 -8 -9 -11q-13 -13 3 -28q13 -13 28 2q4 4 8 10q7 8 25 27q49 53 74 78l12 12q65 67 100 94q48 32 95 43.5t96 -2t92 -55.5q71 -72 61 -170q-4 -35 -16.5 -66
t-26.5 -45l-307 -303l-49 -49z" />
    <glyph glyph-name="shezhi" unicode="&#xe6b9;" 
d="M889 515l4 -10l-84 -105q-6 -7 -6 -18t6 -18l84 -101l-4 -10q-22 -68 -68 -123l-8 -10l-129 20q-9 2 -18.5 -3.5t-12.5 -14.5l-45 -131l-10 -2q-88 -19 -172 0l-12 2l-41 129q-3 9 -12.5 14.5t-18.5 3.5l-133 -20l-8 8q-20 23 -37 53q-19 36 -31 70l-4 10l86 102
q6 8 6 19t-6 18l-86 105l4 10q27 73 70 125l8 8l129 -20q9 -2 18.5 3.5t14.5 14.5l45 127l10 2q83 19 170 0l12 -2l41 -123q3 -9 12.5 -15.5t18.5 -4.5l131 16l8 -8q20 -23 37 -53q19 -31 31 -68zM821 564q-12 22 -26 39l-109 -14q-24 -3 -46 10.5t-30 36.5l-35 100
q-64 13 -129 0l-36 -104q-8 -23 -31 -36.5t-47 -8.5l-105 16q-32 -40 -51 -92l72 -86q15 -18 15 -44t-15 -46l-72 -84q9 -26 25 -51q12 -22 26 -39l111 16q24 3 46 -10.5t30 -36.5l35 -104q65 -13 133 0l36 108q8 23 30.5 36.5t45.5 8.5l105 -16q30 39 49 90l-70 82
q-15 19 -16 44.5t14 45.5l70 88q-11 30 -25 51zM512 241q-60 0 -101.5 41.5t-41.5 101.5t41.5 101.5t101.5 41.5t101.5 -41.5t41.5 -101.5t-41.5 -101.5t-101.5 -41.5zM512 282q43 0 72.5 29.5t29.5 72.5t-29.5 72.5t-72.5 29.5t-72.5 -29.5t-29.5 -72.5t29.5 -72.5
t72.5 -29.5z" />
    <glyph glyph-name="yulan" unicode="&#xe6ba;" 
d="M512 77q-169 0 -346 147q-54 46 -103 101q-4 5 -14 16t-14 16q-4 7 -10 13l-9 12l9 12q6 6 10 13q4 5 14 15.5t14 16.5q39 44 103 101q177 147 346 147t346 -147q54 -46 103 -101q4 -6 14 -16.5t14 -15.5q4 -7 10 -13l9 -12l-9 -12q-6 -6 -10 -13q-4 -5 -14 -16t-14 -16
q-39 -44 -103 -101q-177 -147 -346 -147zM94 353q47 -53 99 -96q165 -139 319 -139q158 0 319 139q52 43 99 96q20 25 26 31q-16 20 -26 31q-47 53 -99 96q-165 139 -319 139q-158 0 -319 -139q-52 -43 -99 -96q-20 -25 -26 -31q6 -10 26 -31zM512 179q-84 0 -144.5 60.5
t-60.5 144.5t60.5 144.5t144.5 60.5t144.5 -60.5t60.5 -144.5t-60.5 -144.5t-144.5 -60.5zM512 220q68 0 116 48t48 116t-48 116t-116 48t-116 -48t-48 -116t48 -116t116 -48z" />
    <glyph glyph-name="yanshi" unicode="&#xe6bb;" 
d="M133 765h-72v41h902v-41h-72v-514q0 -43 -30 -73t-73 -30h-155l90 -153q4 -8 2 -16t-10 -12.5t-16 -2t-13 9.5l-100 174h-148l-100 -174q-10 -15 -29 -8q-16 10 -8 29l90 153h-155q-43 0 -73 30t-30 73v514zM174 763v-512q0 -26 17.5 -44t44.5 -18h552q27 0 44.5 18
t17.5 44v512h-676zM492 642q0 9 5.5 15t14.5 6t14.5 -6t5.5 -15v-358q0 -10 -5.5 -15.5t-14.5 -5.5t-14.5 5.5t-5.5 15.5v358zM307 462q0 9 5.5 14.5t15 5.5t15 -5.5t5.5 -14.5v-180q0 -10 -5.5 -15.5t-15 -5.5t-15 5.5t-5.5 15.5v180zM676 550q0 9 5.5 14.5t15 5.5t15 -5.5
t5.5 -14.5v-266q0 -10 -5.5 -15.5t-15 -5.5t-15 5.5t-5.5 15.5v266z" />
    <glyph glyph-name="shuju" unicode="&#xe6bc;" 
d="M512 876q-112 0 -205.5 -22.5t-149 -64t-55.5 -92.5v-626q0 -50 55.5 -91.5t149 -64.5t205.5 -23t205.5 22.5t149 64t55.5 92.5v626q0 51 -55.5 92.5t-149 64t-205.5 22.5zM512 835q100 0 185.5 -19.5t134.5 -51t49 -67.5q0 -34 -49 -65.5t-135 -51.5t-185 -20
q-100 0 -185.5 19.5t-134.5 51t-49 67t49 67t134.5 51t185.5 19.5zM881 71q0 -35 -49 -66.5t-135 -51.5t-185 -20q-100 0 -185.5 19.5t-134.5 51t-49 67.5v131q50 -45 149 -72t220 -27t220 27t149 72v-131zM512 142q-100 0 -185.5 19.5t-134.5 51t-49 67.5v131
q50 -45 149 -72t220 -27t220 27t149 72v-131q0 -35 -49 -66.5t-135 -51.5t-185 -20zM512 351q-100 0 -185.5 19.5t-134.5 51t-49 66.5v132q50 -45 149 -72t220 -27t220 27t149 72v-132q0 -34 -49 -65.5t-135 -51.5t-185 -20zM797 490zM772 490.5q0 -10.5 7 -17.5t17.5 -7
t17.5 7t7 17.5t-7 17.5t-17.5 7t-17.5 -7t-7 -17.5zM797 284zM772 283.5q0 -10.5 7 -17.5t17.5 -7t17.5 7t7 17.5t-7 17.5t-17.5 7t-17.5 -7t-7 -17.5zM797 75zM772 75q0 -10 7 -17.5t17.5 -7.5t17.5 7.5t7 17.5t-7 17t-17.5 7t-17.5 -7t-7 -17z" />
    <glyph glyph-name="tianjiashujuyuan" unicode="&#xe6bd;" 
d="M737 660v164q0 10 6 15.5t15 5.5t14.5 -5.5t5.5 -15.5v-164h164q9 0 15 -5.5t6 -14.5t-6 -14.5t-15 -5.5h-164v-164q0 -10 -5.5 -15.5t-14.5 -5.5t-15 5.5t-6 15.5v164h-164q-9 0 -14.5 5.5t-5.5 14.5t5.5 14.5t14.5 5.5h164zM102 280q0 -35 49 -66.5t135 -51.5t185 -20
q100 0 185.5 19.5t134.5 51t49 67.5v165q0 8 5.5 14.5t14.5 6.5t15 -6.5t6 -14.5v-374q0 -50 -54.5 -91t-148.5 -64.5t-207 -23.5t-207 23.5t-148.5 64.5t-54.5 91v628q1 51 56.5 91.5t148.5 63t205 22.5q78 0 168 -15q8 -1 13 -8t3 -16q-1 -8 -8 -13t-16 -4q-69 15 -158 15
h-27q-92 -3 -174 -23q-77 -20 -122.5 -50.5t-45.5 -62.5q0 -34 49 -65.5t135 -51.5t185 -20q9 0 15 -5.5t6 -15t-6 -15t-15 -5.5q-120 0 -219.5 27t-149.5 72v-130q0 -34 49 -65.5t135 -51.5t185 -20q103 0 197 23q8 1 15.5 -3t8.5 -12q2 -7 -2.5 -15t-11.5 -9
q-97 -23 -205 -23q-120 0 -219.5 27t-149.5 72v-133h-4zM102 200v-129q0 -25 27.5 -49.5t75 -44t117.5 -32t149 -12.5t149 12.5t117.5 32t75 44t27.5 49.5v129q-50 -45 -149 -72t-219.5 -27t-220 27t-149.5 72zM756 257q-11 0 -18 7.5t-7 17.5t7.5 17t17.5 7t17 -7.5
t7 -16.5q2 -10 -6 -17.5t-18 -7.5zM756 50q-11 0 -18 7.5t-7 17.5t7.5 17t17.5 7t17 -7.5t7 -16.5q2 -9 -6 -17t-18 -8z" />
    <glyph glyph-name="shujuji" unicode="&#xe6be;" 
d="M909 165q0 -8 -8 -12l-369 -213v434l377 207v-416zM123 151q-8 4 -8 12v414l377 -207v-435zM504 837q3 1 8 1t6 -1l377 -217l-385 -211l-385 211zM950 601v2q0 14 -8 28t-20 21l-381 219q-13 8 -29 8t-27 -8l-381 -219q-12 -7 -20 -21t-8 -28v-438q0 -14 8 -28t20 -21
l381 -219q13 -8 29 -8t27 8l381 219q12 7 20 21t8 28v436z" />
    <glyph glyph-name="xinjianshujuji" unicode="&#xe6bf;" 
d="M768 630v164q0 9 5.5 14.5t15 5.5t15 -5.5t5.5 -14.5v-164h164q9 0 14.5 -6t5.5 -15t-5.5 -14.5t-14.5 -5.5h-164v-164q0 -9 -5.5 -15t-15 -6t-15 6t-5.5 15v164h-164q-9 0 -14.5 5.5t-5.5 14.5t5.5 15t14.5 6h164zM481 -58l375 211q8 4 8 12v225q0 9 6 15t15 6t14.5 -6
t5.5 -15v-225q0 -14 -8 -28t-20 -21l-383 -215q-28 -14 -56 0l-379 215q-28 18 -28 49v446q0 14 8 28t20 21l379 220q13 7 29 7t27 -7l163 -97q16 -9 9 -28q-3 -8 -12.5 -10t-16.5 1l-164 97q-3 1 -8 1t-6 -1l-379 -219q-8 -4 -8 -13v-2q6 0 10 -2l383 -211l172 94
q8 5 16 2.5t12.5 -10t2 -16t-10.5 -12.5l-174 -97v-415h-2zM440 -54v418l-368 202v-401q0 -8 8 -12z" />
    <glyph glyph-name="fanhuishujuji" unicode="&#xe6c0;" 
d="M895 220q-9 0 -15 -5.5t-6 -14.5v-41q0 -8 -8 -13l-374 -211v418l382 211v-160q0 -9 6 -14.5t15 -5.5t14.5 5.5t5.5 14.5v195q0 14 -8 27.5t-20 21.5l-385 225q-13 8 -28 8t-28 -8l-378 -219q-13 -7 -21 -21t-8 -28v-446q0 -14 8 -28t21 -21l378 -215q13 -7 29.5 -7
t28.5 7l383 215q28 17 28 49v41q0 9 -5.5 14.5t-14.5 5.5zM451 -60l-361 204q-8 4 -8 13v401l369 -203v-415zM473 392l-391 215q0 8 8 13l379 219q3 1 8 1t6 -1l385 -226q2 -2 2 -4zM963 312h-279l53 54q6 6 6 14t-6 14t-14 6t-14 -6l-86 -86q-7 -6 -7 -16t7 -17l86 -86
q6 -6 14 -6t14 6.5t6 14.5t-6 14l-53 53h279q9 0 14.5 6t5.5 15t-5.5 14.5t-14.5 5.5z" />
    <glyph glyph-name="suodingshujuji" unicode="&#xe6c1;" 
d="M80 161v418l373 -205v-434l-365 208q-8 5 -8 13zM465 841q3 1 8 1t6 -1l375 -219l-383 -211l-385 211zM887 650l-385 226q-13 7 -28 7t-28 -7l-378 -220q-13 -7 -21 -21t-8 -28v-446q0 -14 8 -28t21 -21l395 -226q4 -2 10 -2q12 0 19 11q2 4 2 10v469l378 209v-105
q0 -9 6 -14.5t15 -5.5t14.5 5.5t5.5 14.5v123q0 14 -7.5 28.5t-18.5 20.5zM944 202v51q0 80 -54 137t-130 57q-77 0 -131 -56.5t-54 -137.5v-51q-16 0 -28 -12t-12 -29v-226q0 -16 12 -28t28 -12h369q17 0 29 12t12 28v226q0 18 -12 29.5t-29 11.5zM575 -65v226h369v-226
h-369zM616 255q0 63 42 108.5t102 45.5t101.5 -45t41.5 -109v-51h-287v51zM801 69q0 -25 -21 -35v-47q0 -10 -5.5 -15.5t-14.5 -5.5t-15 5.5t-6 15.5v47q-20 10 -20 35q0 17 12 29t29 12t29 -11.5t12 -29.5z" />
    <glyph glyph-name="suodingSQLshujuji" unicode="&#xe6c2;" 
d="M485 77q-8 0 -24 4q-23 6 -39 22q-23 26 -23 66q0 43 23 65q13 17 39 23q16 4 24 4q13 0 17 -2q26 -3 45 -25q7 -7 10 -16q1 0 3 1t3 1v35q0 38 12 72h-73v49l379 209v-105q0 -9 5.5 -14.5t14.5 -5.5t15 5.5t6 14.5v123q0 14 -8 27.5t-19 21.5l-385 226q-12 7 -27.5 7
t-27.5 -7l-379 -220q-13 -7 -21 -21t-8 -28v-282h-16v-328h248l192 -111q8 -4 16 -1.5t13 10.5q2 4 2 10v92h20v86q-18 -6 -20 -6q-6 -2 -17 -2zM473 841q3 1 8 1t6 -1l375 -219l-383 -211l-385 211zM88 581l373 -205v-49h-373v254zM324 89q-19 -12 -49.5 -12t-49.5 12
q-19 14 -22 49h20q4 -25 17 -33q13 -10 34 -10q24 0 35 8q13 10 13 23q0 17 -19 27l-37 12q-9 3 -17.5 6t-15 5.5t-8.5 2.5q-20 12 -20 35t18.5 35t44.5 12q30 0 47 -14q18 -15 21 -41h-21q-3 20 -14 28q-14 11 -33 11q-18 0 -30.5 -6.5t-12.5 -22.5q0 -15 15 -20
q10 -6 32 -11q35 -9 45 -16q23 -13 23 -37q3 -30 -16 -43zM461 -58l-101 57h101v-57zM502 239q-6 2 -17 2q-8 0 -24 -4q-17 -9 -23 -17q-16 -20 -16 -53q0 -30 16 -53q6 -9 23 -17q16 -4 24 -4q13 0 17 2q13 4 20 8q-12 17 -20 25q-2 1 -4 3.5t-3.5 4l-2.5 2.5l10 10l2 3
q3 -4 9 -11t9 -10v33q0 24 19 43q-2 3 -5 8t-4 6q-12 16 -30 19zM952 202v51q0 80 -53.5 137t-130.5 57t-130.5 -56.5t-53.5 -137.5v-51q-17 0 -29 -12t-12 -29v-226q0 -16 12 -28t29 -12h368q17 0 29 12t12 28v226q0 18 -11.5 29.5t-29.5 11.5zM625 255q0 63 41.5 108.5
t101.5 45.5t101.5 -45t41.5 -109v-51h-286v51zM952 -65h-368v226h368v-226zM664 325q-19 -31 -19 -72v-31h246v31q0 41 -19 72h-208zM748 34v-47q0 -10 5.5 -15.5t14.5 -5.5t14.5 5.5t5.5 15.5v47q21 10 21 35q0 17 -12 29t-29 12t-29 -12t-12 -29q0 -22 21 -35z" />
    <glyph glyph-name="SQLshujuji" unicode="&#xe6c3;" 
d="M950 333v270q0 14 -8 28t-20 21l-381 219q-13 8 -29 8t-29 -8l-381 -219q-12 -7 -20 -21t-8 -28v-270h-23v-328h242l190 -110q13 -7 29 -7t29 7l190 110h242v328h-23zM532 -62v67h117zM492 -62l-117 67h117v-67zM909 333h-377v39l377 207v-246zM115 579l377 -207v-39
h-377v246zM504 837q8 4 16 0l377 -217l-385 -213l-385 213zM326 73q-31 0 -50 12q-19 14 -22 49h20q4 -25 17 -33q13 -10 35 -10q24 0 34 8q13 10 13 23q0 17 -19 26l-37 13q-9 2 -17.5 5.5t-15 6t-8.5 2.5q-20 12 -20 35q0 22 18.5 34.5t44.5 12.5q30 0 48 -14
q17 -15 20 -41h-20q-4 20 -15 28q-13 11 -33 11q-18 0 -30.5 -6.5t-12.5 -22.5q0 -15 15 -21q10 -5 33 -10q34 -9 45 -16q22 -13 22 -37q0 -22 -18 -37q-13 -18 -47 -18zM616 71l-12 -13q-3 5 -10 14.5t-10 14.5q-22 -14 -47 -14h-5q-22 0 -40 12q-13 8 -19 14
q-22 26 -22 66q0 43 22 65q10 11 19 15q19 9 40 12h5q40 0 61 -27q23 -25 23 -65q0 -37 -23 -66l-2 -2q11 -11 20 -26zM584 218q16 -20 16 -53q0 -31 -14 -51q-5 6 -15.5 17t-15.5 17l-12 -12q16 -16 28 -35q-17 -10 -36 -10h-5q-25 0 -41 19l-2 2q-16 19 -16 53q0 30 16 53
l2 2q16 15 41 19h5q28 0 49 -21zM811 95v-18h-121v176h21v-158h100z" />
    <glyph glyph-name="menhu" unicode="&#xe6c4;" 
d="M760 304h-168v-166q0 -55 33.5 -99.5t87.5 -57.5q63 -19 127 18q8 4 16 2t12 -8q5 -6 3 -15t-9 -14q-74 -45 -157 -22q-68 18 -110 73.5t-42 124.5v92v50v65h219q3 0 9 -1t10 -1q3 -1 10 -2t10 -2q81 -22 124 -95t21 -155q-1 -8 -9 -12.5t-15 -1.5q-8 1 -13 9t-1 15
q16 67 -17.5 125.5t-99.5 75.5q-2 0 -7 1t-10 1q-3 0 -8.5 1t-7.5 1zM274 417q-84 0 -144 60t-60 144.5t60 144.5t144.5 60t144.5 -60t60 -144v-205h-205zM438 622q0 67 -48 115t-115.5 48t-115.5 -48t-48 -115.5t48 -115.5t115 -48h164v164zM274 345h205v-205
q0 -84 -60 -144.5t-144.5 -60.5t-144.5 60.5t-60 145t60 144.5t144 60zM274 304q-67 0 -115 -48t-48 -115.5t48 -116t115.5 -48.5t115.5 48.5t48 115.5v164h-164zM756 417h-205v205q0 84 60 144t144.5 60t145 -60t60.5 -144.5t-60.5 -144.5t-144.5 -60zM756 458
q67 0 115.5 48t48.5 115.5t-48.5 115.5t-116 48t-115.5 -48t-48 -115v-164h164z" />
    <glyph glyph-name="xinjianmenhu" unicode="&#xe6c5;" 
d="M733 630h-164q-9 0 -14.5 -6t-5.5 -15t5.5 -14.5t14.5 -5.5h164v-164q0 -9 5.5 -15t15 -6t15 6t5.5 15v164h164q9 0 14.5 5.5t5.5 14.5t-5.5 15t-14.5 6h-164v164q0 9 -5.5 14.5t-15 5.5t-15 -5.5t-5.5 -14.5v-164zM274 417q-84 0 -144 60t-60 144.5t60 144.5t144.5 60
t144.5 -60t60 -144v-205h-205zM438 622q0 67 -48 115t-115.5 48t-115.5 -48t-48 -115.5t48 -115.5t115 -48h164v164zM274 345h205v-205q0 -84 -60 -144.5t-144.5 -60.5t-144.5 60.5t-60 145t60 144.5t144 60zM274 304q-67 0 -115 -48t-48 -115.5t48 -116t115.5 -48.5
t115.5 48.5t48 115.5v164h-164zM760 304h-168v-166q0 -55 33.5 -99.5t87.5 -57.5q63 -19 127 18q8 4 16 2t12 -8q5 -6 3 -15t-9 -14q-74 -45 -157 -22q-68 18 -110 73.5t-42 124.5v92v50v65h219q3 0 9 -1t10 -1q3 -1 10 -2t10 -2q81 -22 124 -95t21 -155q-1 -8 -9 -12.5
t-15 -1.5q-8 1 -13 9t-1 15q16 67 -17.5 125.5t-99.5 75.5q-2 0 -7 1t-10 1q-3 0 -8.5 1t-7.5 1z" />
    <glyph glyph-name="biaoge" unicode="&#xe6c6;" 
d="M135 404h348v390h-266q-34 0 -58 -24.5t-24 -57.5v-308zM135 364v-308q0 -33 24 -57.5t58 -24.5h266v390h-348zM524 -26h267q33 0 57 24.5t24 57.5v308h-348v-390zM872 404v117q0 9 6 15t15 6t14.5 -6t5.5 -15v-465q0 -50 -36 -86.5t-86 -36.5h-574q-51 0 -87 36.5
t-36 86.5v656q0 50 36 86.5t87 36.5h574q50 0 86 -36.5t36 -86.5v-19q0 -9 -5.5 -14.5t-14.5 -5.5t-15 5.5t-6 14.5v19q0 33 -24 57.5t-57 24.5h-267v-390h348z" />
    <glyph glyph-name="yibiaoban" unicode="&#xe6c7;" 
d="M913 693q0 -9 -5.5 -14.5t-14.5 -5.5t-15 5.5t-6 14.5v19q0 33 -24 57.5t-57 24.5h-574q-34 0 -58 -24.5t-24 -57.5v-656q0 -33 24 -57.5t58 -24.5h574q33 0 57 24.5t24 57.5v465q0 9 6 15t15 6t14.5 -6t5.5 -15v-465q0 -50 -36 -86.5t-86 -36.5h-574q-51 0 -87 36.5
t-36 86.5v656q0 50 36 86.5t87 36.5h574q50 0 86 -36.5t36 -86.5v-19zM248 620h102v-553h-102v553zM453 497h102v-430h-102v430zM657 394h103v-327h-103v327z" />
    <glyph glyph-name="xinjianbiaoge" unicode="&#xe6c8;" 
d="M432 722h-287q-26 0 -43.5 -17.5t-17.5 -44.5v-317h348v379zM473 722v-379h348v170q0 9 6 15t15 6t14.5 -6t5.5 -15v-528q0 -43 -29.5 -73t-72.5 -30h-615q-43 0 -72.5 30t-29.5 73v675q0 43 29.5 73t72.5 30h449q9 0 14.5 -5.5t5.5 -15t-5.5 -15t-14.5 -5.5h-121z
M432 -77v379h-348v-317q0 -26 17.5 -44t43.5 -18h287zM473 -77h287q26 0 43.5 18t17.5 44v317h-348v-379zM819 763v102q0 9 5.5 15t15 6t15 -6t5.5 -15v-102h103q9 0 14.5 -5.5t5.5 -15t-5.5 -15t-14.5 -5.5h-103v-102q0 -10 -5.5 -15.5t-15 -5.5t-15 5.5t-5.5 15.5v102
h-102q-9 0 -15 5.5t-6 15t6 15t15 5.5h102z" />
    <glyph glyph-name="xinjianyibiaoban" unicode="&#xe6c9;" 
d="M860 763h103q9 0 14.5 -5.5t5.5 -15t-5.5 -15t-14.5 -5.5h-103v-102q0 -10 -5.5 -15.5t-15 -5.5t-15 5.5t-5.5 15.5v102h-102q-9 0 -15 5.5t-6 15t6 15t15 5.5h102v102q0 9 5.5 15t15 6t15 -6t5.5 -15v-102zM594 763q9 0 14.5 -5.5t5.5 -15t-5.5 -15t-14.5 -5.5h-449
q-26 0 -43.5 -17.5t-17.5 -44.5v-675q0 -26 17.5 -44t43.5 -18h615q26 0 43.5 18t17.5 44v528q0 9 6 15t15 6t14.5 -6t5.5 -15v-528q0 -43 -29.5 -73t-72.5 -30h-615q-43 0 -72.5 30t-29.5 73v675q0 43 29.5 73t72.5 30h449zM197 538h102v-512h-102v512zM401 435h103v-409
h-103v409zM606 333h103v-307h-103v307z" />
    <glyph glyph-name="jingdianbiaoge" unicode="&#xe6ca;" 
d="M115 404h348v390h-266q-34 0 -58 -24.5t-24 -57.5v-308zM115 364v-308q0 -33 24 -57.5t58 -24.5h266v390h-348zM504 -26h41q9 0 14.5 -5.5t5.5 -14.5t-5.5 -15t-14.5 -6h-348q-51 0 -87 36.5t-36 86.5v656q0 50 36 86.5t87 36.5h573q51 0 87 -36.5t36 -86.5v-183
q0 -9 -5.5 -14.5t-15 -5.5t-15 5.5t-5.5 14.5v183q0 33 -24 57.5t-58 24.5h-266v-390h28q10 0 15.5 -5.5t5.5 -14.5t-5.5 -14.5t-15.5 -5.5h-28v-390zM922 404v-71q0 -45 -23.5 -82t-62.5 -57q38 -19 62 -56.5t24 -83.5v-82h-41v82q0 46 -33.5 79.5t-79.5 33.5t-79.5 -33.5
t-33.5 -79.5v-82h-41v82q0 45 23.5 82t62.5 58q-38 18 -62 55.5t-24 83.5v71q-9 0 -14.5 6t-5.5 15t5.5 14.5t14.5 5.5h308q9 0 14.5 -5.5t5.5 -14.5t-6 -15t-14 -6zM881 404h-226v-71q0 -46 33.5 -79.5t79.5 -33.5t79.5 33.5t33.5 79.5v71zM614 -67q-9 0 -14.5 6t-5.5 15
t5.5 14.5t14.5 5.5h308q9 0 14.5 -5.5t5.5 -14.5t-5.5 -15t-14.5 -6h-308z" />
    <glyph glyph-name="jingdianyibiaoban" unicode="&#xe6cb;" 
d="M922 404v-71q0 -45 -23.5 -82t-62.5 -57q38 -19 62 -56.5t24 -83.5v-82h-41v82q0 46 -33.5 79.5t-79.5 33.5t-79.5 -33.5t-33.5 -79.5v-82h-41v82q0 45 23.5 82t62.5 58q-38 18 -62 55.5t-24 83.5v71q-9 0 -14.5 6t-5.5 15t5.5 14.5t14.5 5.5h308q9 0 14.5 -5.5
t5.5 -14.5t-6 -15t-14 -6zM881 404h-226v-71q0 -46 33.5 -79.5t79.5 -33.5t79.5 33.5t33.5 79.5v71zM614 -67q-9 0 -14.5 6t-5.5 15t5.5 14.5t14.5 5.5h308q9 0 14.5 -5.5t5.5 -14.5t-5.5 -15t-14.5 -6h-308zM893 529q0 -9 -5.5 -14.5t-15 -5.5t-15 5.5t-5.5 14.5v183
q0 33 -24 57.5t-58 24.5h-573q-34 0 -58 -24.5t-24 -57.5v-656q0 -33 24 -57.5t58 -24.5h348q9 0 14.5 -5.5t5.5 -14.5t-5.5 -15t-14.5 -6h-348q-51 0 -87 36.5t-36 86.5v656q0 50 36 86.5t87 36.5h573q51 0 87 -36.5t36 -86.5v-183zM227 630h103v-553h-103v553zM432 507
h103v-430h-103v430z" />
    <glyph glyph-name="huidaojingdian" unicode="&#xe6cc;" 
d="M584 382q67 -24 110 -82.5t43 -130.5v-143h31q9 0 14.5 -6t5.5 -15t-5.5 -14.5t-14.5 -5.5h-512q-9 0 -14.5 5.5t-5.5 14.5t5.5 15t14.5 6h31v143q0 73 42.5 132t110.5 81q-67 23 -110 81.5t-43 131.5v147h-31q-9 0 -14.5 6t-5.5 15t5.5 14.5t14.5 5.5h512q9 0 14.5 -5.5
t5.5 -14.5t-5.5 -15t-14.5 -6h-31v-147q0 -73 -42.5 -131.5t-110.5 -81.5zM696 742h-368v-147q0 -77 53.5 -130.5t130.5 -53.5t130.5 53.5t53.5 130.5v147zM328 26h368v143q0 77 -53.5 130.5t-130.5 53.5t-130.5 -53.5t-53.5 -130.5v-143z" />
    <glyph glyph-name="zuoguanlian" unicode="&#xe6cd;" 
d="M348.5 56q-88.5 0 -164.5 44t-120 119.5t-44 164.5t44 164.5t120 119.5t164.5 44t164 -44t119.5 -119.5t44 -164.5t-44 -164.5t-119.5 -119.5t-164 -44zM348 97q118 0 202.5 84.5t84.5 202.5t-84.5 202.5t-202.5 84.5t-202.5 -84.5t-84.5 -202.5t84.5 -202.5t202.5 -84.5
zM675.5 56q-88.5 0 -164 44t-119.5 119.5t-44 164.5t44 164.5t119.5 119.5t164 44t164.5 -44t120 -119.5t44 -164.5t-44 -164.5t-120 -119.5t-164.5 -44zM676 97q118 0 202.5 84.5t84.5 202.5t-84.5 202.5t-202.5 84.5t-202.5 -84.5t-84.5 -202.5t84.5 -202.5t202.5 -84.5z
M434 636q-52 -49 -79 -114t-27 -138q0 -72 27.5 -137.5t78.5 -114.5q-40 -14 -86 -14q-110 0 -188 77.5t-78 188.5t78 188.5t188 77.5q49 0 86 -14z" />
    <glyph glyph-name="zhonghe" unicode="&#xe6ce;" 
d="M348.5 56q-88.5 0 -164.5 44t-120 119.5t-44 164.5t44 164.5t120 119.5t164.5 44t164 -44t119.5 -119.5t44 -164.5t-44 -164.5t-119.5 -119.5t-164 -44zM348 97q118 0 202.5 84.5t84.5 202.5t-84.5 202.5t-202.5 84.5t-202.5 -84.5t-84.5 -202.5t84.5 -202.5t202.5 -84.5
zM675.5 56q-88.5 0 -164 44t-119.5 119.5t-44 164.5t44 164.5t119.5 119.5t164 44t164.5 -44t120 -119.5t44 -164.5t-44 -164.5t-120 -119.5t-164.5 -44zM676 97q118 0 202.5 84.5t84.5 202.5t-84.5 202.5t-202.5 84.5t-202.5 -84.5t-84.5 -202.5t84.5 -202.5t202.5 -84.5z
M512 593q48 -39 75 -93.5t27 -115.5t-27 -116.5t-75 -92.5q-48 39 -75 93.5t-27 115.5t27 116.5t75 92.5z" />
    <glyph glyph-name="jisuanzhibiao" unicode="&#xe6cf;" 
d="M240 130l-109 -108q-6 -7 -6 -15t6 -14t14.5 -6t14.5 6l108 108l117 -116q6 -7 14.5 -7t14.5 6.5t6 14.5t-6 14l-117 117l123 123q6 6 6 14t-6 14.5t-14.5 6.5t-14.5 -6l-123 -123l-116 116q-7 7 -15 7t-14 -6.5t-6 -14.5t6 -14zM256 630h-143q-10 0 -15.5 -6t-5.5 -15
t5.5 -14.5t15.5 -5.5h143v-144q0 -9 5.5 -14.5t15 -5.5t15 5.5t5.5 14.5v144h143q10 0 15.5 5.5t5.5 14.5t-5.5 15t-15.5 6h-143v143q0 9 -5.5 15t-15 6t-15 -6t-5.5 -15v-143zM604 589q-9 0 -14.5 5.5t-5.5 14.5t5.5 15t14.5 6h307q10 0 15.5 -6t5.5 -15t-5.5 -14.5
t-15.5 -5.5h-307zM604 179q-9 0 -14.5 5.5t-5.5 15t5.5 15t14.5 5.5h307q10 0 15.5 -5.5t5.5 -15t-5.5 -15t-15.5 -5.5h-307zM604 36q-9 0 -14.5 5.5t-5.5 15t5.5 15t14.5 5.5h307q10 0 15.5 -5.5t5.5 -15t-5.5 -15t-15.5 -5.5h-307z" />
    <glyph glyph-name="diliweizhi" unicode="&#xe6d0;" 
d="M514 -56q-11 0 -16 8q-5 7 -134.5 180t-134.5 180q-55 86 -55 178q3 141 100 238q97 96 236 96q92 0 169.5 -44.5t123 -121.5t45.5 -168q0 -89 -47 -174q-2 -1 -2 -2q-15 -19 -141 -189.5t-128 -172.5q-2 -8 -16 -8q3 0 0 0zM215 490q0 -80 47 -155q37 -46 252 -338
q41 54 140.5 188.5t111.5 151.5q41 70 41 153q0 122 -87 207.5t-210 85.5q-117 3 -207 -84q-85 -88 -88 -209zM512 349q-60 0 -103.5 44t-43.5 105.5t43 104.5t104 43q65 0 106 -45q41 -44 41 -102q0 -65 -41.5 -107.5t-105.5 -42.5zM512 605q-45 0 -75.5 -31t-30.5 -75.5
t31.5 -76.5t74.5 -32q46 0 76 31t30 78q0 42 -28 73q-33 33 -78 33z" />
    <glyph glyph-name="shijianweidu" unicode="&#xe6d1;" 
d="M635 697h-266v-37q0 -9 -6 -14.5t-15 -5.5t-14.5 5.5t-5.5 14.5v37h-144q-26 0 -43.5 -17.5t-17.5 -43.5v-553q0 -26 17.5 -43.5t43.5 -17.5h656q26 0 43.5 17.5t17.5 43.5v88q0 9 5.5 14.5t15 5.5t15 -5.5t5.5 -14.5v-88q0 -43 -29.5 -72.5t-72.5 -29.5h-656
q-43 0 -72.5 29.5t-29.5 72.5v553q0 43 29.5 72.5t72.5 29.5h144v29q0 9 5.5 14.5t14.5 5.5t15 -5.5t6 -14.5v-29h266v29q0 9 5.5 14.5t15 5.5t15 -5.5t5.5 -14.5v-29h164q43 0 72.5 -29.5t29.5 -72.5v-279q0 -9 -5.5 -14.5t-15 -5.5t-15 5.5t-5.5 14.5v279q0 26 -17.5 43.5
t-43.5 17.5h-164v-37q0 -9 -5.5 -14.5t-15 -5.5t-15 5.5t-5.5 14.5v37zM360 353q10 0 15.5 -5.5t5.5 -14.5t-5.5 -15t-15.5 -6h-86q-9 0 -14.5 6t-5.5 15t5.5 14.5t14.5 5.5h86zM555 353q9 0 14.5 -5.5t5.5 -14.5t-5.5 -15t-14.5 -6h-86q-9 0 -14.5 6t-5.5 15t5.5 14.5
t14.5 5.5h86zM750 353q9 0 14.5 -5.5t5.5 -14.5t-5.5 -15t-14.5 -6h-86q-10 0 -15.5 6t-5.5 15t5.5 14.5t15.5 5.5h86zM360 210q10 0 15.5 -5.5t5.5 -15t-5.5 -15t-15.5 -5.5h-86q-9 0 -14.5 5.5t-5.5 15t5.5 15t14.5 5.5h86zM555 210q9 0 14.5 -5.5t5.5 -15t-5.5 -15
t-14.5 -5.5h-86q-9 0 -14.5 5.5t-5.5 15t5.5 15t14.5 5.5h86zM750 210q9 0 14.5 -5.5t5.5 -15t-5.5 -15t-14.5 -5.5h-86q-10 0 -15.5 5.5t-5.5 15t5.5 15t15.5 5.5h86zM360 517q10 0 15.5 -5.5t5.5 -15t-5.5 -15t-15.5 -5.5h-86q-9 0 -14.5 5.5t-5.5 15t5.5 15t14.5 5.5h86z
M555 517q9 0 14.5 -5.5t5.5 -15t-5.5 -15t-14.5 -5.5h-86q-9 0 -14.5 5.5t-5.5 15t5.5 15t14.5 5.5h86zM750 517q9 0 14.5 -5.5t5.5 -15t-5.5 -15t-14.5 -5.5h-86q-10 0 -15.5 5.5t-5.5 15t5.5 15t15.5 5.5h86z" />
    <glyph glyph-name="zuanqu" unicode="&#xe6d2;" 
d="M227 290q65 -9 108.5 -58t43.5 -114q0 -72 -51 -123t-123 -51t-123 51t-51 123q0 67 44.5 116.5t110.5 57.5q14 115 98 196t199 91q-4 8 -4 12v205q0 9 5.5 14.5t15 5.5t15 -5.5t5.5 -14.5v-205q0 -8 -2 -10q123 -3 213.5 -85t104.5 -202q66 -6 110.5 -56.5t44.5 -117.5
q0 -72 -51 -123t-123 -51t-123 51t-51 123q0 66 43.5 115t108.5 57q-14 105 -95.5 176.5t-189.5 71.5t-187.5 -72t-95.5 -178zM520 579h-8h8zM205 -15q55 0 94 38.5t39 94t-39 94.5t-94 39t-94 -39t-39 -94.5t39 -94t94 -38.5zM819 -15q55 0 94 38.5t39 94t-39 94.5t-94 39
t-94 -39t-39 -94.5t39 -94t94 -38.5z" />
    <glyph glyph-name="jiaochabiao" unicode="&#xe6d3;" 
d="M338 404h573v144h-573v-144zM297 404v144h-184v-144h184zM338 732v-143h573v82q0 26 -17.5 43.5t-43.5 17.5h-512zM297 732h-123q-26 0 -43.5 -17.5t-17.5 -43.5v-82h184v143zM338 364v-144h573v144h-573zM297 364h-184v-144h184v144zM338 36h512q26 0 43.5 17.5
t17.5 43.5v82h-573v-143zM297 36v143h-184v-82q0 -26 17.5 -43.5t43.5 -17.5h123zM72 671q0 43 29.5 72.5t72.5 29.5h676q43 0 72.5 -29.5t29.5 -72.5v-574q0 -43 -29.5 -72.5t-72.5 -29.5h-676q-43 0 -72.5 29.5t-29.5 72.5v574z" />
    <glyph glyph-name="kaifazhong" unicode="&#xe6d4;" 
d="M881 538h-820v-424q0 -26 18 -44t44 -18h491q10 0 15.5 -5.5t5.5 -14.5t-5.5 -15t-15.5 -6h-491q-43 0 -73 30t-30 73v553q0 43 30 72.5t73 29.5h696q43 0 73 -29.5t30 -72.5v-177q0 -9 -6 -14.5t-15 -5.5t-14.5 5.5t-5.5 14.5v48zM881 579v88q0 26 -18 43.5t-44 17.5
h-696q-26 0 -44 -17.5t-18 -43.5v-88h820zM676 630q-9 0 -15 5.5t-6 14.5t6 15t15 6t14.5 -6t5.5 -15t-5.5 -14.5t-14.5 -5.5zM737 630q-9 0 -14.5 5.5t-5.5 14.5t5.5 15t14.5 6t15 -6t6 -15t-6 -14.5t-15 -5.5zM799 630q-9 0 -15 5.5t-6 14.5t6 15t15 6t14.5 -6t5.5 -15
t-5.5 -14.5t-14.5 -5.5zM350 388q10 16 29 8q16 -9 8 -28l-102 -179q-10 -15 -29 -8q-7 3 -9.5 12t1.5 17zM223 382l-55 -90l55 -94q5 -8 2.5 -16t-10.5 -13t-16 -2.5t-13 10.5l-67 115l67 110q5 8 13 9.5t16 -2.5q7 -3 9.5 -11.5t-1.5 -15.5zM412 198l55 94l-55 90
q-5 8 -3 16t9 13q8 4 16 2t12 -9l68 -110l-68 -115q-9 -16 -28 -8q-6 3 -8 12t2 15zM989 321l4 -11l-41 -51q-6 -8 -6 -18.5t6 -18.5l39 -47l-4 -10q-11 -38 -39 -72l-8 -10l-61 10q-10 2 -19 -3.5t-12 -14.5l-21 -62l-10 -2q-51 -13 -102 0l-13 2l-20 62q-3 9 -12 14.5
t-19 3.5l-63 -10l-8 8q-17 21 -23 33q-12 18 -18 41l-4 10l40 49q7 8 7 18.5t-7 18.5l-40 49l4 11q17 44 41 73l8 8l61 -10q10 -1 19 4t12 15l22 61l11 2q50 10 100 0l12 -2l21 -59q3 -9 12 -15t19 -6l63 8l8 -8q17 -20 23 -33q13 -19 18 -38zM936 341l-12 18l-39 -4
q-25 -3 -46.5 10.5t-29.5 36.5l-12 37q-31 6 -62 0l-14 -39q-8 -23 -30.5 -36t-45.5 -9l-37 6q-10 -12 -22 -40l26 -31q16 -19 16 -44.5t-16 -45.5l-26 -31q1 -3 3 -8t4 -9t5 -8q1 -2 4.5 -8t5.5 -8l41 6q25 3 46.5 -10.5t29.5 -36.5l12 -39q31 -6 62 0l14 41
q8 23 30.5 36.5t45.5 8.5l37 -6q14 21 22 41l-24 29q-16 18 -16 43.5t14 44.5l26 32q-4 7 -12 23zM766 138q-43 0 -72.5 30t-29.5 73t29.5 72.5t72.5 29.5t72.5 -29.5t29.5 -72.5q0 -42 -30.5 -72.5t-71.5 -30.5zM766 179q26 0 43.5 18t17.5 44t-17.5 43.5t-43.5 17.5
t-43.5 -17.5t-17.5 -43.5t17.5 -44t43.5 -18z" />
    <glyph glyph-name="shijian" unicode="&#xe6d5;" 
d="M889 171q-5 -8 -13 -10.5t-16 2t-10.5 13t2.5 15.5q38 70 46.5 148t-12 148.5t-68.5 132t-117.5 100t-147.5 47t-148.5 -12t-132 -68.5t-100 -117.5t-47 -147.5t12 -148.5t68.5 -132.5t118 -100q102 -56 216.5 -48t207.5 77q6 4 15 3t13.5 -7.5t3 -15.5t-7.5 -13
q-102 -77 -228 -86.5t-239 53.5q-76 42 -129 110.5t-75.5 146.5t-14 164.5t50.5 162.5t110.5 129t147 75.5t164.5 14t162 -51t129 -110.5t75.5 -146.5t14 -164.5t-50.5 -162zM532 677v-289l289 -86q18 -7 15 -24q-8 -18 -25 -15l-319 96v320q0 9 5.5 14.5t14.5 5.5
t14.5 -6.5t5.5 -15.5z" />
    <glyph glyph-name="riqi" unicode="&#xe6d6;" 
d="M676 697v-37q0 -9 -5.5 -14.5t-15 -5.5t-15 5.5t-5.5 14.5v37h-266v-37q0 -9 -6 -14.5t-15 -5.5t-14.5 5.5t-5.5 14.5v37h-144q-26 0 -43.5 -17.5t-17.5 -43.5v-119h778v119q0 26 -17.5 43.5t-43.5 17.5h-164zM676 738h164q43 0 72.5 -29.5t29.5 -72.5v-279
q0 -9 -5.5 -14.5t-15 -5.5t-15 5.5t-5.5 14.5v121h-778v-393q0 -26 17.5 -43.5t43.5 -17.5h656q26 0 43.5 17.5t17.5 43.5v88q0 9 5.5 15t15 6t15 -6t5.5 -15v-88q0 -43 -29.5 -72.5t-72.5 -29.5h-656q-43 0 -72.5 29.5t-29.5 72.5v553q0 43 29.5 72.5t72.5 29.5h144v29
q0 9 5.5 15t14.5 6t15 -6t6 -15v-29h266v29q0 9 5.5 15t15 6t15 -6t5.5 -15v-31zM444 337q53 12 80 49h25v-258h-43v197q-23 -17 -62 -23v35z" />
    <glyph glyph-name="riqishijian" unicode="&#xe6d7;" 
d="M584 738v29q0 9 5.5 14.5t14.5 5.5t15 -5.5t6 -14.5v-29h163q43 0 73 -29.5t30 -72.5v-74q0 -9 -5.5 -14.5t-15 -5.5t-15 5.5t-5.5 14.5v74q0 26 -17.5 43.5t-44.5 17.5h-163v-37q0 -9 -6 -14.5t-15 -5.5t-14.5 5.5t-5.5 14.5v37h-267v-37q0 -9 -5.5 -14.5t-14.5 -5.5
t-15 5.5t-6 14.5v37h-143q-26 0 -43.5 -17.5t-17.5 -43.5v-119h399q9 0 15 -5.5t6 -15t-6 -15t-15 -5.5h-399v-393q0 -26 17.5 -43.5t43.5 -17.5h338q9 0 15 -6t6 -15t-6 -14.5t-15 -5.5h-338q-43 0 -72.5 29.5t-29.5 72.5v553q0 43 29.5 72.5t72.5 29.5h143v29q0 9 6 14.5
t15 5.5t14.5 -5.5t5.5 -14.5v-29h267zM958 112q-4 -8 -12 -10.5t-16 2t-10.5 12.5t2.5 16q47 86 20 180t-113 140q-86 47 -179.5 20t-139.5 -113q-47 -85 -20 -179t112 -140q62 -34 131.5 -28.5t124.5 46.5q6 5 15 3.5t13.5 -7.5t3.5 -15t-7 -13q-65 -50 -147 -55.5
t-154 34.5q-66 36 -104 100.5t-39 135t34 141.5q27 50 71 84t94.5 48.5t106 9t105.5 -33.5q101 -58 132.5 -168.5t-24.5 -209.5zM727 431v-184l168 -37q8 -2 13 -9.5t3.5 -15t-9.5 -13t-15 -3.5l-201 45v217q0 9 5.5 15t15 6t15 -6t5.5 -15zM209 337q52 12 80 49h24v-258
h-43v197q-23 -17 -61 -23v35z" />
    <glyph glyph-name="tongbubiaojiegou" unicode="&#xe6d8;" 
d="M492 499v-504q0 -9 -6 -15t-15 -6t-14.5 6t-5.5 15v504l-48 -47q-6 -7 -14 -7t-14 6.5t-6 14.5t6 14l96 97l96 -97q6 -6 6 -14t-6 -14.5t-14 -6.5t-14 7zM717 46v504q0 9 5.5 14.5t14.5 5.5t15 -5.5t6 -14.5v-504l47 47q6 6 14 6t14.5 -6t6.5 -14t-6 -14l-97 -97l-96 97
q-6 6 -6 14t6 14t14.5 6t14.5 -6zM922 318q0 -9 -6 -14.5t-15 -5.5t-14.5 5.5t-5.5 14.5v377q0 26 -18 44t-44 18h-614q-26 0 -44 -18t-18 -44v-614q0 -26 18 -44t44 -18h123q9 0 14.5 -5.5t5.5 -14.5t-5.5 -15t-14.5 -6h-123q-43 0 -73 30t-30 73v614q0 43 30 73t73 30h614
q43 0 73 -30t30 -73v-377z" />
    <glyph glyph-name="jianjie" unicode="&#xe6d9;" 
d="M484 387q15 15 29.5 0.5t-0.5 -29.5l-362 -362q-14 -14 -28.5 0.5t-0.5 28.5zM781 461v0q-9 0 -14.5 6t-5.5 14v0q0 9 5.5 15t14.5 6h101q9 0 15 -6t6 -14.5t-6 -14.5t-15 -6h-101zM594 315q0 8 6 14t14.5 6t14.5 -6t6 -14v-102q0 -8 -6 -14t-14 -6h-1q-8 0 -14 6t-6 14
v0v102zM448 502q9 0 14.5 -6t5.5 -14.5t-5.5 -14.5t-14.5 -6h-101h-1q-8 0 -14 6t-6 14v0q0 9 6 15t15 6h101zM635 648q0 -9 -6 -14.5t-14 -5.5h-1q-8 0 -14 5.5t-6 13.5v1v101q0 9 6 14.5t14.5 5.5t14.5 -5.5t6 -14.5v-101zM788 691q15 15 29.5 0.5t-0.5 -29.5l-72 -72
q-15 -15 -29.5 -0.5t0.5 29.5l72 72v0zM412 662q-15 15 -0.5 29.5t29.5 -0.5l72 -72q15 -15 0.5 -29.5t-29.5 0.5zM716 358q-15 15 -0.5 29.5t29.5 -0.5l72 -72q15 -15 0.5 -29.5t-29.5 0.5zM556.5 430.5q-23.5 23.5 -23.5 58t23.5 58t58 23.5t58 -23.5t23.5 -58t-23.5 -58
t-58 -23.5t-58 23.5zM585.5 460q11.5 -12 29 -12t29 12t11.5 29t-11.5 28.5t-28.5 11.5t-29 -12t-12 -28.5t11.5 -28.5z" />
    <glyph glyph-name="zhushou" unicode="&#xe6da;" 
d="M870 271l-6 4l-8 5q-16 8 -27 12q-127 48 -307 -21q-194 -74 -336 -20q-20 8 -28 12q-6 -34 -6 -67q0 -71 26 -136t74 -114h524q101 107 101 250q3 38 -7 75zM854 327q-28 70 -80.5 123.5t-122.5 80.5l-12 7v90q0 9 5.5 14.5t15 5.5t15 -5.5t5.5 -14.5v-62
q110 -48 176 -148t66 -220q0 -81 -30.5 -154.5t-86.5 -130.5l-6 -6h-559l-7 6q-57 57 -87.5 130.5t-30.5 154.5q0 121 66 222t175 148v238q0 26 18 43.5t44 17.5h200q27 0 44.5 -17.5t17.5 -43.5v-47q0 -9 -5.5 -15t-15 -6t-15 6t-5.5 15v47q0 8 -6 14t-15 6h-200
q-9 0 -15 -5.5t-6 -14.5v-264l-12 -4q-77 -31 -132.5 -91t-78.5 -137q1 0 2 -1t2 -1q17 -8 27 -12q127 -48 305 20q194 75 336 21q1 -4 2.5 -6t3.5 -3zM713 79q-36 0 -61 25.5t-25 60.5t25 60.5t60.5 25.5t61 -25.5t25.5 -60.5q0 -36 -25 -61t-61 -25zM712.5 120
q18.5 0 32 13t13.5 31.5t-13.5 32t-32 13.5t-31.5 -13.5t-13 -32t13 -31.5t31.5 -13z" />
    <glyph glyph-name="shiyan" unicode="&#xe6db;" 
d="M231 388h5q83 -21 221 10q145 32 268 11q25 -6 39 -11l16 -6l23 23l18 18q6 6 14.5 6t14.5 -6t6 -14t-6 -15l-19 -18l-47 -47l-141 -141l-203 -203q-69 -70 -166 -70t-166 69t-69 167q0 99 70 166l256 256l178 178l59 59l23 23l14 14l332 -332l-60 -59q-6 -6 -14 -6
t-14 6t-6 14t6 15l30 30l-274 275l-8 -8l-60 -60l-178 -178q-82 -90 -162 -166zM199 355l-62 -61q-57 -57 -57 -137q0 -81 56.5 -138t137.5 -57q80 0 138 57l202 203l134 133q-2 0 -4 1t-3 1l-24 7q-114 20 -252 -9q-148 -32 -240 -8q-4 1 -26 8zM290.5 17
q-35.5 0 -60.5 25.5t-25 61t25 60.5t60.5 25t61 -25t25.5 -60.5t-25.5 -61t-61 -25.5zM290.5 58q18.5 0 32 13.5t13.5 32t-13.5 31.5t-32 13t-31.5 -13t-13 -31.5t13 -32t31.5 -13.5z" />
    <glyph glyph-name="youduiqi" unicode="&#xe6dc;" 
d="M174 671q-9 0 -14.5 5.5t-5.5 14.5t5.5 15t14.5 6h676q9 0 14.5 -6t5.5 -15t-5.5 -14.5t-14.5 -5.5h-676zM440 527q-9 0 -14.5 6t-5.5 15t5.5 14.5t14.5 5.5h410q9 0 14.5 -5.5t5.5 -14.5t-5.5 -15t-14.5 -6h-410zM174 384q-9 0 -14.5 5.5t-5.5 15t5.5 15t14.5 5.5h676
q9 0 14.5 -5.5t5.5 -15t-5.5 -15t-14.5 -5.5h-676zM440 220q-9 0 -14.5 5.5t-5.5 15t5.5 15t14.5 5.5h410q9 0 14.5 -5.5t5.5 -15t-5.5 -15t-14.5 -5.5h-410zM174 56q-9 0 -14.5 6t-5.5 15t5.5 14.5t14.5 5.5h676q9 0 14.5 -5.5t5.5 -14.5t-5.5 -15t-14.5 -6h-676z" />
    <glyph glyph-name="juzhong" unicode="&#xe6dd;" 
d="M174 671q-9 0 -14.5 5.5t-5.5 14.5t5.5 15t14.5 6h676q9 0 14.5 -6t5.5 -15t-5.5 -14.5t-14.5 -5.5h-676zM307 527q-9 0 -14.5 6t-5.5 15t5.5 14.5t14.5 5.5h410q9 0 14.5 -5.5t5.5 -14.5t-5.5 -15t-14.5 -6h-410zM174 384q-9 0 -14.5 5.5t-5.5 15t5.5 15t14.5 5.5h676
q9 0 14.5 -5.5t5.5 -15t-5.5 -15t-14.5 -5.5h-676zM307 220q-9 0 -14.5 5.5t-5.5 15t5.5 15t14.5 5.5h410q9 0 14.5 -5.5t5.5 -15t-5.5 -15t-14.5 -5.5h-410zM174 56q-9 0 -14.5 6t-5.5 15t5.5 14.5t14.5 5.5h676q9 0 14.5 -5.5t5.5 -14.5t-5.5 -15t-14.5 -6h-676z" />
    <glyph glyph-name="zuoduiqi" unicode="&#xe6de;" 
d="M174 671q-9 0 -14.5 5.5t-5.5 14.5t5.5 15t14.5 6h676q9 0 14.5 -6t5.5 -15t-5.5 -14.5t-14.5 -5.5h-676zM174 527q-9 0 -14.5 6t-5.5 15t5.5 14.5t14.5 5.5h410q9 0 14.5 -5.5t5.5 -14.5t-5.5 -15t-14.5 -6h-410zM174 384q-9 0 -14.5 5.5t-5.5 15t5.5 15t14.5 5.5h676
q9 0 14.5 -5.5t5.5 -15t-5.5 -15t-14.5 -5.5h-676zM174 220q-9 0 -14.5 5.5t-5.5 15t5.5 15t14.5 5.5h410q9 0 14.5 -5.5t5.5 -15t-5.5 -15t-14.5 -5.5h-410zM174 56q-9 0 -14.5 6t-5.5 15t5.5 14.5t14.5 5.5h676q9 0 14.5 -5.5t5.5 -14.5t-5.5 -15t-14.5 -6h-676z" />
    <glyph glyph-name="weidu" unicode="&#xe6df;" 
d="M532 488v-184l152 -88q36 50 96.5 63.5t116.5 -16.5q55 -30 75.5 -90t-3.5 -117q-3 -7 -11 -10t-15.5 0t-10.5 11t0 16q18 43 3 87.5t-56 67.5q-45 25 -94.5 11.5t-73.5 -58.5q-25 -44 -11 -93.5t60 -74.5q52 -29 108 -6q8 3 16 0t11 -10.5t0 -15.5t-10 -11
q-74 -30 -144 8q-54 31 -75 90t2 115l-152 88l-156 -90q13 -27 13 -61q0 -68 -48.5 -116t-116 -48t-115.5 48t-48 115.5t48 116t116 48.5q82 0 133 -68l154 90v184q-61 8 -102.5 54.5t-41.5 107.5q0 68 48.5 116t116 48t115.5 -48t48 -116q-3 -64 -45 -110t-103 -54z
M532 292zM530 282zM204.5 -5q50.5 0 87 36t36.5 86.5t-36.5 87t-87 36.5t-86.5 -36.5t-36 -87t36 -86.5t86.5 -36zM512 527q51 0 87 36.5t36 87t-36 86.5t-87 36t-87 -36t-36 -86.5t36 -87t87 -36.5z" />
    <glyph glyph-name="weidu1" unicode="&#xe6e0;" 
d="M356 97q-7 -60 -53.5 -101.5t-107.5 -41.5q-68 0 -116 48t-48 115.5t48 116t116 48.5q23 0 45 -7l153 252q-57 51 -57 125q0 68 48 116t115.5 48t116 -48t48.5 -116q0 -74 -58 -125l156 -252q66 20 125 -14q55 -31 75.5 -90.5t-4.5 -116.5q-3 -7 -11 -10t-15.5 0
t-10.5 11t1 16q18 43 3 87.5t-57 67.5q-44 25 -93.5 11.5t-74.5 -58.5q-25 -44 -10.5 -93.5t60.5 -74.5q52 -29 108 -6q8 3 16 0t11 -10.5t0 -15.5t-11 -11q-73 -30 -143 8q-35 20 -57 53t-27 70h-291v-2zM356 138h289q3 28 19 60q21 39 59 61l-152 246q-36 -17 -71 -17
q-39 0 -72 17l-152 -246q71 -42 80 -121zM501.5 527q50.5 0 87 36.5t36.5 87t-36.5 86.5t-87 36t-86.5 -36t-36 -86.5t36 -87t86.5 -36.5zM194.5 -5q50.5 0 86.5 36t36 86.5t-36 87t-86.5 36.5t-86.5 -36.5t-36 -87t36 -86.5t86.5 -36z" />
    <glyph glyph-name="weidu2" unicode="&#xe6e1;" 
d="M279 269q36 -22 57.5 -59.5t21.5 -81.5q0 -68 -48 -116t-115.5 -48t-115.5 48t-48 116t48 116t116 48q23 0 45 -6l153 252q-57 50 -57 125q0 67 48 115t115.5 48t116 -48t48.5 -115q0 -75 -58 -125l162 -263q69 21 129 -12q55 -30 75.5 -90t-3.5 -117q-3 -7 -11 -10
t-15.5 0t-10.5 11t0 16q18 43 3 87.5t-56 67.5q-45 25 -94.5 11.5t-73.5 -58.5q-25 -44 -11 -93.5t60 -74.5q52 -29 108 -6q8 3 16 0t11 -10.5t0 -15.5t-10 -11q-74 -30 -144 8q-60 33 -78.5 98.5t15.5 125.5q23 39 57 59l-157 258q-37 -16 -72 -16q-39 0 -72 16zM194.5 5
q50.5 0 86.5 36t36 87t-36 87t-86.5 36t-86.5 -36t-36 -87t36 -87t86.5 -36zM501.5 538q50.5 0 87 36t36.5 86.5t-36.5 86.5t-87 36t-86.5 -36t-36 -86.5t36 -86.5t86.5 -36z" />
    <glyph glyph-name="shangebuju" unicode="&#xe6e2;" 
d="M922 314q0 -9 -6 -14.5t-15 -5.5t-14.5 5.5t-5.5 14.5v377q0 26 -18 44t-44 18h-614q-26 0 -44 -18t-18 -44v-614q0 -26 18 -44t44 -18h614q26 0 44 18t18 44v90q0 9 5.5 14.5t14.5 5.5t15 -5.5t6 -14.5v-90q0 -43 -30 -73t-73 -30h-614q-43 0 -73 30t-30 73v614
q0 43 30 73t73 30h614q43 0 73 -30t30 -73v-377zM492 630q0 9 5.5 14.5t14.5 5.5t14.5 -5.5t5.5 -14.5v-492q0 -9 -5.5 -14.5t-14.5 -5.5t-14.5 5.5t-5.5 14.5v492zM287 630q0 9 5.5 14.5t14.5 5.5t15 -5.5t6 -14.5v-492q0 -9 -6 -14.5t-15 -5.5t-14.5 5.5t-5.5 14.5v492z
M696 630q0 9 6 14.5t15 5.5t14.5 -5.5t5.5 -14.5v-492q0 -9 -5.5 -14.5t-14.5 -5.5t-15 5.5t-6 14.5v492z" />
    <glyph glyph-name="liushibuju" unicode="&#xe6e3;" 
d="M922 314q0 -9 -6 -14.5t-15 -5.5t-14.5 5.5t-5.5 14.5v377q0 26 -18 44t-44 18h-614q-26 0 -44 -18t-18 -44v-614q0 -26 18 -44t44 -18h614q26 0 44 18t18 44v90q0 9 5.5 14.5t14.5 5.5t15 -5.5t6 -14.5v-90q0 -43 -30 -73t-73 -30h-614q-43 0 -73 30t-30 73v614
q0 43 30 73t73 30h614q43 0 73 -30t30 -73v-377zM492 630q0 9 5.5 14.5t14.5 5.5t14.5 -5.5t5.5 -14.5v-103q0 -9 -5.5 -14.5t-14.5 -5.5t-14.5 5.5t-5.5 14.5v103zM287 241q0 9 5.5 14.5t14.5 5.5t15 -5.5t6 -14.5v-103q0 -9 -6 -14.5t-15 -5.5t-14.5 5.5t-5.5 14.5v103z
M696 241q0 9 6 14.5t15 5.5t14.5 -5.5t5.5 -14.5v-103q0 -9 -5.5 -14.5t-14.5 -5.5t-15 5.5t-6 14.5v103zM492 425q0 9 5.5 14.5t14.5 5.5t14.5 -5.5t5.5 -14.5v-287q0 -9 -5.5 -14.5t-14.5 -5.5t-14.5 5.5t-5.5 14.5v287zM287 630q0 9 5.5 14.5t14.5 5.5t15 -5.5t6 -14.5
v-287q0 -9 -6 -14.5t-15 -5.5t-14.5 5.5t-5.5 14.5v287zM696 630q0 9 6 14.5t15 5.5t14.5 -5.5t5.5 -14.5v-287q0 -9 -5.5 -14.5t-14.5 -5.5t-15 5.5t-6 14.5v287z" />
    <glyph glyph-name="tansuokongjian" unicode="&#xe6e4;" 
d="M528 601l2 -2l72 -72q6 -6 6 -14t-6 -14t-14 -6t-15 6l-43 43v-197q0 -9 -5.5 -14.5t-14.5 -5.5t-15 5.5t-6 14.5v197l-43 -43q-6 -6 -14 -6t-14 6t-6 14t6 14l71 72l3 2q5 8 16 8q12 0 20 -8zM532 159v-144h185q9 0 14.5 -5.5t5.5 -14.5t-5.5 -15t-14.5 -6h-410
q-9 0 -14.5 6t-5.5 15t5.5 14.5t14.5 5.5h185v144h-379q-26 0 -44 17.5t-18 43.5v512q0 26 18 44t44 18h798q26 0 44 -18t18 -44v-512q0 -26 -18 -43.5t-44 -17.5h-379zM514 200h397q10 0 15.5 5.5t5.5 14.5v512q0 8 -6.5 14.5t-14.5 6.5h-798q-10 0 -15.5 -6t-5.5 -15v-512
q0 -8 6.5 -14t14.5 -6h401v0z" />
    <glyph glyph-name="baobiao" unicode="&#xe6e5;" 
d="M514 310q-1 2 -4.5 2t-3.5 -2l4 6zM639 460l-98 -170q-9 -17 -26.5 -18.5t-31.5 12.5l-121 129l-120 -224q-7 -12 -20.5 -20t-28.5 -8h-82q-27 0 -44.5 17.5t-17.5 43.5v512q0 26 17.5 44t44.5 18h798q26 0 44 -18t18 -44v-512q0 -26 -18 -43.5t-44 -17.5h-377v-144h185
q9 0 14.5 -5.5t5.5 -14.5t-5.5 -15t-14.5 -6h-410q-9 0 -14.5 6t-5.5 15t5.5 14.5t14.5 5.5h185v144q0 17 12 29t28 12h379q10 0 15.5 5.5t5.5 14.5v512q0 8 -6.5 14.5t-14.5 6.5h-798q-10 0 -15.5 -6t-5.5 -15v-512q0 -7 6.5 -13.5t14.5 -6.5h82q6 0 12 6l125 231
q9 17 26 19.5t31 -11.5l121 -129l98 170q-33 36 -33 84q0 51 36.5 87t87 36t86.5 -36t36 -86.5t-36 -86.5t-87 -36q-28 -6 -59 10zM696.5 486q33.5 0 57.5 24.5t24 58t-24 57.5t-57.5 24t-58 -24t-24.5 -57.5t24.5 -58t58 -24.5z" />
    <glyph glyph-name="kongjian" unicode="&#xe6e6;" 
d="M911 226q0 -9 -5.5 -14.5t-14.5 -5.5t-15 5.5t-6 14.5v66q0 8 -5.5 14t-14.5 6h-246q-8 0 -14 -5.5t-6 -14.5v-246q0 -8 5.5 -14t14.5 -6h246q8 0 14 6t6 14v45q0 9 6 15t15 6t14.5 -6t5.5 -15v-45q0 -26 -17.5 -43.5t-43.5 -17.5h-246q-26 0 -43.5 17.5t-17.5 43.5v246
q0 26 17.5 43.5t43.5 17.5h246q26 0 43.5 -17.5t17.5 -43.5v-66zM911 722v-246q0 -26 -17.5 -43.5t-43.5 -17.5h-246q-26 0 -43.5 17.5t-17.5 43.5v246q0 26 17.5 43.5t43.5 17.5h246q26 0 43.5 -17.5t17.5 -43.5zM481 722v-246q0 -26 -17.5 -43.5t-43.5 -17.5h-246
q-26 0 -43.5 17.5t-17.5 43.5v246q0 26 17.5 43.5t43.5 17.5h246q26 0 43.5 -17.5t17.5 -43.5zM481 292v-246q0 -26 -17.5 -43.5t-43.5 -17.5h-246q-26 0 -43.5 17.5t-17.5 43.5v246q0 26 17.5 43.5t43.5 17.5h246q26 0 43.5 -17.5t17.5 -43.5zM870 722q0 8 -5.5 14t-14.5 6
h-246q-8 0 -14 -5.5t-6 -14.5v-246q0 -8 5.5 -14t14.5 -6h246q8 0 14 5.5t6 14.5v246zM440 722q0 8 -5.5 14t-14.5 6h-246q-8 0 -14 -5.5t-6 -14.5v-246q0 -8 5.5 -14t14.5 -6h246q8 0 14 5.5t6 14.5v246zM440 292q0 8 -5.5 14t-14.5 6h-246q-8 0 -14 -5.5t-6 -14.5v-246
q0 -8 5.5 -14t14.5 -6h246q8 0 14 5.5t6 14.5v246z" />
    <glyph glyph-name="peizhi" unicode="&#xe6e7;" 
d="M799 79q-44 8 -73.5 41.5t-29.5 79.5q0 50 36.5 86.5t87 36.5t86.5 -36.5t36 -86.5q0 -46 -29.5 -79.5t-72.5 -41.5v-115q0 -9 -6 -14.5t-15 -5.5t-14.5 5.5t-5.5 14.5v115zM184 79q-43 8 -72.5 41.5t-29.5 79.5q0 50 36 86.5t86.5 36.5t87 -36.5t36.5 -86.5
q0 -46 -29.5 -79.5t-73.5 -41.5v-115q0 -9 -5.5 -14.5t-14.5 -5.5t-15 5.5t-6 14.5v115zM492 689q-44 -8 -73.5 -41.5t-29.5 -79.5q0 -50 36 -86.5t87 -36.5t87 36.5t36 86.5q0 46 -29.5 79.5t-73.5 41.5v115q0 9 -5.5 14.5t-14.5 5.5t-14.5 -5.5t-5.5 -14.5v-115zM184 804
q0 9 6 14.5t15 5.5t14.5 -5.5t5.5 -14.5v-410q0 -9 -5.5 -14.5t-14.5 -5.5t-15 5.5t-6 14.5v410zM799 804q0 9 5.5 14.5t14.5 5.5t15 -5.5t6 -14.5v-410q0 -9 -6 -14.5t-15 -5.5t-14.5 5.5t-5.5 14.5v410zM512 486q-34 0 -58 24.5t-24 58t24 57.5t58 24t58 -24t24 -57.5
t-24 -58t-58 -24.5zM492 374q0 9 5.5 14.5t14.5 5.5t14.5 -5.5t5.5 -14.5v-410q0 -9 -5.5 -14.5t-14.5 -5.5t-14.5 5.5t-5.5 14.5v410zM205 118q34 0 58 24t24 57.5t-24 58t-58 24.5t-58 -24.5t-24 -58t24 -57.5t58 -24zM819 118q34 0 58 24t24 57.5t-24 58t-58 24.5
t-58 -24.5t-24 -58t24 -57.5t58 -24z" />
    <glyph glyph-name="duliang" unicode="&#xe6e8;" 
d="M270 372l117 116l100 -100q7 -6 15 -6t14 6t6 14.5t-6 14.5l-100 100l116 117l101 -100q6 -7 14 -7t14.5 6.5t6.5 14.5t-6 14l-101 101l131 131l232 -232l-435 -434q-6 -6 -6 -14.5t6.5 -14.5t14.5 -6t14 6l434 435q13 12 13 28.5t-13 28.5l-231 231q-12 13 -28.5 13
t-28.5 -13l-582 -581q-12 -13 -12 -29t12 -29l231 -231q13 -12 29 -12t29 12l57 57q6 6 6 14.5t-6 14.5t-14 6t-15 -6l-57 -57l-231 231l131 131l100 -100q6 -6 14.5 -6t14.5 6t6 14t-6 14z" />
    <glyph glyph-name="tubiao-bingtu" unicode="&#xe6e9;" 
d="M768 699l-213 -305h367q-3 88 -43.5 168.5t-110.5 136.5zM733 724q-4 2 -11 7t-11 7q-84 45 -179 52v-355zM922 353h-430v434q-105 -4 -195 -59.5t-143 -150.5q-41 -74 -49.5 -156t13 -156.5t72 -139.5t123.5 -106q108 -59 228.5 -50t216.5 81q6 5 15 3.5t13.5 -7.5
t3 -15t-7.5 -14q-106 -80 -238.5 -89.5t-250.5 55.5q-80 44 -136 116t-79.5 154t-14.5 172t53.5 170t116.5 135.5t154 79.5t172 15t170 -53.5t136 -116.5t79.5 -154t14.5 -172t-54 -170q-4 -8 -12.5 -10.5t-16 2t-10 12.5t1.5 16q47 79 54 174z" />
    <glyph glyph-name="tubiao-zhuzhuangtu" unicode="&#xe6ea;" 
d="M164 15h123v738h-123v-738zM123 794h205v-820h-205v820zM410 589h204v-615h-204v615zM451 15h122v533h-122v-533zM696 384h205v-410h-205v410zM737 15h123v328h-123v-328z" />
    <glyph glyph-name="hanshu" unicode="&#xe6eb;" 
d="M360 439h162q9 0 15 -5.5t6 -14.5t-6 -15t-15 -6h-168l-78 -438q-1 -8 -8 -13t-16 -3q-8 1 -13 8t-3 16l75 430h-116q-10 0 -15.5 6t-5.5 15t5.5 14.5t15.5 5.5h124l35 197q8 44 35 84q29 42 72 63q50 26 119 29q9 0 14.5 -5.5t5.5 -15t-5.5 -15t-14.5 -5.5
q-49 0 -101 -22q-38 -21 -57 -52q-17 -23 -23 -47q-2 -5 -3.5 -11.5t-2.5 -8.5zM705 187l116 138q16 15 29 2q15 -16 2 -29l-121 -143l121 -144q6 -6 5 -15t-7 -13q-6 -6 -15 -5.5t-14 7.5l-116 137l-117 -137q-16 -16 -29 -2q-15 15 -2 28l121 144l-121 143q-6 6 -5 15
t7 14q6 6 15 5t14 -7z" />
    <glyph glyph-name="fuzhi" unicode="&#xe6ec;" 
d="M932 220q0 -9 -5.5 -14.5t-15 -5.5t-15 5.5t-5.5 14.5v256q0 26 -17.5 44t-44.5 18h-409q-26 0 -44 -18t-18 -44v-409q0 -27 18 -44.5t44 -17.5h409q27 0 44.5 17.5t17.5 44.5v45q0 9 5.5 14.5t15 5.5t15 -5.5t5.5 -14.5v-45q0 -43 -30 -73t-73 -30h-409q-43 0 -73 30
t-30 73v409q0 43 30 73t73 30h409q43 0 73 -30t30 -73v-256zM707 675q0 -9 -6 -15t-15 -6t-14.5 6t-5.5 15v26q0 27 -18 44.5t-44 17.5h-409q-27 0 -44.5 -17.5t-17.5 -44.5v-409q0 -26 17.5 -44t44.5 -18h32q10 0 15.5 -5.5t5.5 -14.5t-5.5 -15t-15.5 -6h-32q-43 0 -73 30
t-30 73v409q0 43 30 73t73 30h409q43 0 73 -30t30 -73v-26z" />
    <glyph glyph-name="niantie" unicode="&#xe6ed;" 
d="M348 783q0 17 12 29t29 12h123q17 0 29 -12t12 -29h154q43 0 72.5 -29.5t29.5 -72.5v-27q0 -9 -5.5 -14.5t-15 -5.5t-15 5.5t-5.5 14.5v27q0 26 -17.5 43.5t-43.5 17.5h-512q-27 0 -44.5 -17.5t-17.5 -43.5v-533q0 -26 17.5 -43.5t44.5 -17.5h32q10 0 15.5 -5.5t5.5 -15
t-5.5 -15t-15.5 -5.5h-32q-43 0 -73 29.5t-30 72.5v533q0 43 30 72.5t73 29.5h153zM932 200q0 -10 -5.5 -15.5t-15 -5.5t-15 5.5t-5.5 15.5v256q0 26 -17.5 43.5t-44.5 17.5h-409q-26 0 -44 -17.5t-18 -43.5v-410q0 -26 18 -43.5t44 -17.5h409q27 0 44.5 17.5t17.5 43.5v45
q0 9 5.5 15t15 6t15 -6t5.5 -15v-45q0 -43 -30 -72.5t-73 -29.5h-409q-43 0 -73 29.5t-30 72.5v410q0 43 30 72.5t73 29.5h409q43 0 73 -29.5t30 -72.5v-256zM246 620q-9 0 -15 5.5t-6 14.5t6 14.5t15 5.5h61q9 0 15 -5.5t6 -14.5t-6 -14.5t-15 -5.5h-61zM410 620
q-10 0 -15.5 5.5t-5.5 14.5t5.5 14.5t15.5 5.5h245q10 0 15.5 -5.5t5.5 -14.5t-5.5 -14.5t-15.5 -5.5h-245z" />
    <glyph glyph-name="Excel" unicode="&#xe6ee;" 
d="M932 241q9 0 14.5 5.5t5.5 14.5v338l-164 168h-456q-34 0 -58 -24t-24 -58v-68h-137q-17 0 -29 -12t-12 -28v-406q0 -17 12 -29t29 -12h137v-53q0 -34 24 -58t58 -24h538q34 0 58 24t24 58v61q0 9 -5.5 15t-14.5 6t-15 -6t-6 -15v-61q0 -17 -12 -29t-29 -12h-538
q-17 0 -29 12t-12 29v53h225q17 0 29 12t12 29v406q0 16 -12 28t-29 12h-225v68q0 17 12 29t29 12h416v-106q0 -25 17.5 -43.5t43.5 -18.5h102v-297q0 -9 6 -14.5t15 -5.5zM313 407l45 65h62l-72 -102l86 -119h-63l-56 78l-55 -78h-63l86 119l-74 102h63zM809 599
q-9 0 -15 5.5t-6 15.5v90l107 -111h-86zM768 282h-102q-10 0 -15.5 -6t-5.5 -15t5.5 -14.5t15.5 -5.5h102q9 0 14.5 5.5t5.5 14.5t-5.5 15t-14.5 6zM768 384h-102q-10 0 -15.5 -5.5t-5.5 -15t5.5 -15t15.5 -5.5h102q9 0 14.5 5.5t5.5 15t-5.5 15t-14.5 5.5zM768 486h-102
q-10 0 -15.5 -5.5t-5.5 -14.5t5.5 -15t15.5 -6h102q9 0 14.5 6t5.5 15t-5.5 14.5t-14.5 5.5z" />
    <glyph glyph-name="CSV" unicode="&#xe6ef;" 
d="M250 507v178q0 34 24 58t58 24h456l164 -168v-338q0 -9 -5.5 -14.5t-14.5 -5.5t-15 5.5t-6 14.5v297h-102q-26 0 -43.5 17.5t-17.5 44.5v106h-416q-17 0 -29 -12t-12 -29v-178h457q16 0 28 -12t12 -29v-287q0 -17 -12 -29t-28 -12h-457v-61q0 -17 12 -29t29 -12h538
q17 0 29 12t12 29v61q0 9 6 15t15 6t14.5 -6t5.5 -15v-61q0 -34 -24 -58t-58 -24h-538q-34 0 -58 24t-24 58v61h-137q-17 0 -29 12t-12 29v287q0 17 12 29t29 12h137zM788 710v-90q0 -9 6 -15t15 -6h86zM315 359q-20 57 -84 60q-88 -6 -94 -103q3 -99 94 -102q73 0 88 68
l-36 12q-6 -47 -50 -47q-52 3 -55 71q3 67 55 70q38 -3 48 -37zM342 280q15 -66 90 -66t78 59q0 35 -41 54l-37 12q-44 9 -41 29q3 21 35 24q37 0 43 -33l37 9q-5 27 -26 41.5t-56 13.5q-69 -3 -72 -53q-3 -43 58 -58q20 -4 30 -8q34 -9 31 -31q-3 -25 -39 -28q-45 0 -51 45
zM723 417h-41l-49 -146q-6 -18 -6 -20q0 5 -6 20l-52 148h-41l78 -199h43z" />
    <glyph glyph-name="TXT" unicode="&#xe6f0;" 
d="M250 507v178q0 34 24 58t58 24h456l164 -168v-338q0 -9 -5.5 -14.5t-14.5 -5.5t-15 5.5t-6 14.5v297h-102q-26 0 -43.5 17.5t-17.5 44.5v106h-416q-17 0 -29 -12t-12 -29v-178h457q16 0 28 -12t12 -29v-287q0 -17 -12 -29t-28 -12h-457v-61q0 -17 12 -29t29 -12h538
q17 0 29 12t12 29v61q0 9 6 15t15 6t14.5 -6t5.5 -15v-61q0 -34 -24 -58t-58 -24h-538q-34 0 -58 24t-24 58v61h-137q-17 0 -29 12t-12 29v287q0 17 12 29t29 12h137zM788 710v-90q0 -9 6 -15t15 -6h86zM322 386v31h-172v-31h67v-168h39v168h66zM453 316l67 101h-45
q-28 -46 -37 -64q-2 -2 -6 -10q-1 -2 -2.5 -3.5t-1.5 -2.5l-4 8q-2 4 -4 6v0q-5 9 -39 64h-45l67 -99l-75 -100h45q11 17 23.5 35t17 25t4.5 8q4 6 8 14q4 -8 8 -12q1 -1 5.5 -8t16.5 -25t23 -35h47zM707 386v31h-172v-31h67v-168h39v168h66z" />
    <glyph glyph-name="wenbenduiqi" unicode="&#xe6f1;" 
d="M174 671q-9 0 -14.5 5.5t-5.5 14.5t5.5 15t14.5 6h676q9 0 14.5 -6t5.5 -15t-5.5 -14.5t-14.5 -5.5h-676zM174 466q-9 0 -14.5 5.5t-5.5 15t5.5 15t14.5 5.5h676q9 0 14.5 -5.5t5.5 -15t-5.5 -15t-14.5 -5.5h-676zM174 261q-9 0 -14.5 5.5t-5.5 15t5.5 15t14.5 5.5h676
q9 0 14.5 -5.5t5.5 -15t-5.5 -15t-14.5 -5.5h-676zM174 56q-9 0 -14.5 6t-5.5 15t5.5 14.5t14.5 5.5h676q9 0 14.5 -5.5t5.5 -14.5t-5.5 -15t-14.5 -6h-676z" />
    <glyph glyph-name="duohangwenben" unicode="&#xe6f2;" 
d="M649 97l43 -43q6 -6 6 -14t-6 -14.5t-14 -6.5t-14 7l-72 71q-6 6 -6 19q-4 11 6 18l72 72q6 6 14 6t14 -6t6 -14.5t-6 -14.5l-41 -41h101q33 0 57.5 24t24.5 58t-24.5 58t-57.5 24h-574q-9 0 -14.5 5.5t-5.5 15t5.5 15t14.5 5.5h574q50 0 86 -36t36 -87t-36 -87t-86 -36
h-103v2zM180 712q-9 0 -14.5 5.5t-5.5 14.5t5.5 15t14.5 6h656q9 0 14.5 -6t5.5 -15t-5.5 -14.5t-14.5 -5.5h-656zM180 507q-9 0 -14.5 5.5t-5.5 15t5.5 15t14.5 5.5h656q9 0 14.5 -5.5t5.5 -15t-5.5 -15t-14.5 -5.5h-656zM180 97q-9 0 -14.5 6t-5.5 15t5.5 14.5t14.5 5.5
h266q10 0 15.5 -5.5t5.5 -14.5t-5.5 -15t-15.5 -6h-266z" />
    <glyph glyph-name="danhangwenben" unicode="&#xe6f3;" 
d="M119 169h778v430h-778v-430zM78 640h860v-512h-860v512zM195 486v-204q0 -10 5.5 -15.5t14.5 -5.5t15 5.5t6 15.5v204q0 10 -6 15.5t-15 5.5t-14.5 -5.5t-5.5 -15.5z" />
    <glyph glyph-name="duohangwenben1" unicode="&#xe6f4;" 
d="M119 118h778v532h-778v-532zM78 691h860v-614h-860v614zM856 282l-123 -123h123v123zM195 538v-205q0 -9 5.5 -15t14.5 -6t15 6t6 15v205q0 9 -6 14.5t-15 5.5t-14.5 -5.5t-5.5 -14.5z" />
    <glyph glyph-name="shanchulie" unicode="&#xe6f5;" 
d="M541 108l67 67q6 6 6 14.5t-6 14.5t-14 6t-14 -6l-68 -68l-68 68q-6 6 -14 6t-14 -6t-6 -14.5t6 -14.5l67 -67l-67 -68q-6 -6 -6 -14.5t6 -14.5t14 -6t14 6l68 68l68 -68q6 -6 14 -6t14 6t6 14.5t-6 14.5zM287 415h-123v-410h-41v451h205v-451h-41v410zM860 415h-123
v-410h-41v451h205v-451h-41v410zM410 353v410h204v-410h-204zM573 394v328h-122v-328h122z" />
    <glyph glyph-name="shanchuhang" unicode="&#xe6f6;" 
d="M236 355l67 -67q6 -6 14.5 -6t14.5 6t6 14t-6 14l-68 68l68 68q6 6 6 14t-6 14t-14.5 6t-14.5 -6l-67 -67l-68 67q-6 6 -14.5 6t-14.5 -6t-6 -14t6 -14l68 -68l-68 -68q-6 -6 -6 -14t6 -14t14.5 -6t14.5 6zM543 609v123h-410v41h451v-205h-451v41h410zM543 36v123h-410
v41h451v-205h-451v41h410zM481 486h410v-204h-410v204zM522 323h328v122h-328v-122z" />
    <glyph glyph-name="fenlie" unicode="&#xe6f7;" 
d="M143 712v-164h738v164h-738zM102 753h820v-246h-820v246zM444 419l68 -68l68 68q6 6 14 6t14 -6t6 -14.5t-6 -14.5l-96 -96l-96 96q-6 6 -6 14.5t6 14.5t14 6t14 -6zM102 261h369v-246h-369v246zM553 261h369v-246h-369v246zM143 56h287v164h-287v-164zM594 56h287v164
h-287v-164z" />
    <glyph glyph-name="yonghuguanli" unicode="&#xe612;" 
d="M512 288q-120 0 -204 84t-84 204t84 204t204 84t204 -84t84 -204t-84 -204t-204 -84zM512 800q-91 0 -157.5 -66.5t-66.5 -157.5t66.5 -157.5t157.5 -66.5t157.5 66.5t66.5 157.5t-66.5 157.5t-157.5 66.5zM896 -96q-14 0 -23 9t-9 23q0 144 -104 248t-248 104t-248 -104
t-104 -248q0 -14 -9 -23t-23 -9t-23 9t-9 23q0 173 121.5 294.5t294.5 121.5t294.5 -121.5t121.5 -294.5q0 -14 -9 -23t-23 -9z" />
    <glyph glyph-name="quanxianguanli" unicode="&#xe616;" 
d="M691 192q-121 0 -205 83q-86 87 -86 205t86.5 204.5t205 86.5t204.5 -86.5t86 -204.5t-86 -205q-42 -41 -95.5 -62t-109.5 -21zM691 704q-96 0 -160 -64q-67 -67 -67 -160t67 -160t160 -67t160 67t67 159t-67 155q-61 70 -160 70zM218 0q-32 0 -71 26l-89 89
q-10 10 -10 22.5t9.5 22.5t22.5 10t22 -10l90 -83q13 -13 26 -13q3 0 12.5 3t12.5 3l243 250q10 10 23 10t22.5 -10t9.5 -22.5t-10 -22.5l-243 -243q-43 -32 -70 -32v0zM371 128q-19 0 -25 6l-90 90q-10 10 -10 22.5t10 22t22.5 9.5t22.5 -9l89 -90q10 -9 10 -22t-10 -23
q-6 -6 -19 -6z" />
    <glyph glyph-name="zuguanli" unicode="&#xe619;" 
d="M896 -32h-768q-38 0 -67 29t-29 67v640q0 38 29 67t67 29h314l115 -147h339q38 0 67 -29t29 -67v-493q0 -38 -29 -67t-67 -29zM128 736q-14 0 -23 -9t-9 -23v-640q0 -14 9 -23t23 -9h768q14 0 23 9t9 23v493q0 14 -9 23t-23 9h-371l-115 147h-282z" />
    <glyph glyph-name="shishi" unicode="&#xe61a;" 
d="M710 186q-12 0 -19 6l-166 109q-27 17 -13 45q10 10 22 12.5t23 -6.5l166 -115q11 -11 13 -23t-6 -22q0 -6 -20 -6zM537.5 294q-14.5 0 -23 9t-8.5 23v224q0 15 8.5 23.5t23 8.5t23.5 -8.5t9 -23.5v-224q0 -14 -9 -23t-23.5 -9zM550 -70q-87 0 -165 33t-135 95
q-10 9 -10 22t9.5 22.5t22.5 9.5t22 -10q109 -108 256 -108q98 0 182 48t133.5 132t49.5 184q0 101 -48 185t-132 132t-185 48q-120 0 -219 -73.5t-133 -188.5q0 -14 -11 -22.5t-21 -3.5q-13 5 -19 16t-6 23q38 134 154 220.5t255 86.5q117 0 215.5 -57.5t156 -156.5
t57.5 -215q0 -85 -34 -163t-91 -135t-137 -90.5t-167 -33.5zM160 403q-32 0 -32 26l-26 166q0 30 26 39q30 0 38 -26l26 -173q0 -11 -9.5 -21.5t-22.5 -10.5zM160 403q-19 0 -32 13q-5 15 0 27.5t19 17.5l160 83q10 5 22.5 1t22.5 -14q5 -10 1 -22.5t-14 -22.5l-166 -83h-13
z" />
    <glyph glyph-name="lixian" unicode="&#xe61b;" 
d="M506 237q-39 0 -75 -13.5t-60 -37.5q-9 -10 -22 -10t-23 10q-13 11 -11.5 26t11.5 31q45 36 122 58zM288 448q-67 -29 -115 -77q-10 -9 -10 -25t9.5 -26t25 -10t20.5 10q61 51 121 77zM128 608q-79 -53 -115 -96q-10 -10 -10 -26t9.5 -25.5t22.5 -9.5t23 10q61 62 121 96
zM992 512q-97 97 -223 151t-263 54q-105 0 -212 -32l58 -58q67 19 154 19q126 0 239 -47.5t202 -131.5q10 -14 22.5 -14t22.5 14q11 6 12 20.5t-12 24.5zM506 499h-26l77 -77q62 -4 121 -31.5t103 -70.5q9 -10 22 -10t23 10q14 10 14 26t-14 25q-65 59 -148 93.5t-172 34.5z
M506 90q-29 0 -50 -21t-21 -50t21 -49.5t49.5 -20.5t49.5 20.5t21 49.5q0 33 -20 52t-50 19zM698 211l-64 64l-154 154l-64 64l-115 115l-58 58l-38 38q-31 20 -51 0q-10 -10 -10 -26t10 -25l19 -19l51 -52l141 -140l25 -26l288 -288q10 -10 26 -10t25.5 10t9.5 26t-9 25z
" />
    <glyph glyph-name="jiaoseguanli" unicode="&#xe61c;" 
d="M1011 576l-83 141q-34 48 -83 68.5t-135 20.5h-83q-13 0 -25 -12l-20 -45l-70 -83l-64 76l-19 39q0 9 -7.5 14t-18.5 5h-89q-77 0 -131.5 -25t-92.5 -77l-77 -122q-10 -19 -6 -40t19 -30l102 -90q32 -21 58 -13h6l6 7v-372q0 -57 38.5 -95.5t96.5 -38.5h345
q58 0 96.5 38.5t38.5 95.5v378h32q19 0 45 13l102 83q19 5 24 25t-5 39zM858 467h-13l-19 13h-13q-3 0 -9.5 3t-9.5 3q-26 -12 -26 -38v-410q0 -32 -23.5 -54t-53.5 -22h-352q-32 0 -54.5 23t-22.5 53v410q-4 0 -5 1t-1 5q0 10 -9 18t-23 8q-6 0 -12 -1.5t-10 -3.5l-4 -1
l-32 -20h-6l-102 90l76 122q27 37 66.5 56.5t106.5 19.5h77l13 -25q0 -7 6 -7l77 -89q14 -15 34 -15t30 15l77 89q0 7 6 7l13 25h70q79 0 113 -14t54 -50l83 -134z" />
    <glyph glyph-name="shishibaobiao" unicode="&#xe61d;" 
d="M922 58h-762q-10 0 -18 8t-8 17v602q0 9 -8 17t-17 8q-10 0 -21 -8t-11 -17v-627q0 -20 17 -36t40 -16h788q9 0 17 8t8 18t-8 18t-17 8zM922 58zM211 256h51q13 0 26 13l58 83l83 -173q13 -13 19 -13q9 -4 20.5 3t11.5 17l109 339l83 -243q0 -9 7.5 -14.5t18.5 -5.5h140
q5 -10 18 -17.5t27 -7.5q24 0 41 15.5t17 35.5t-17 35.5t-41 15.5q-14 0 -27 -7.5t-18 -17.5h-121l-96 307q-5 10 -13.5 13.5t-18.5 -0.5q-13 0 -13 -7l-6 -6l-116 -352l-76 147l-7 6q-6 13 -32 13q-5 0 -9 -4t-4 -9l-76 -115h-39q-9 0 -17 -8t-8 -17.5t8 -17.5t17 -8z
M211 256z" />
    <glyph glyph-name="lixianbaobiao" unicode="&#xe624;" 
d="M339 45q-70 0 -115 45q-48 48 -48 114t48 110l134 134l45 -45l-134 -134q-29 -29 -29 -67.5t29 -67t67 -28.5t67 28l135 135l44 -45l-134 -134q-36 -45 -109 -45zM678 314l-44 44l134 141q26 26 26 71q0 32 -26 70q-26 26 -70 26q-32 0 -71 -26l-128 -141l-51 45l134 134
q45 45 116 45q59 0 115 -45q45 -44 45 -115q0 -59 -45 -115zM294 461l-128 13l7 64l128 -13zM307 550l-89 90l44 45l90 -90zM378 608l-13 128l64 6l13 -128zM614 32l-12 128l64 6l12 -128zM781 90l-90 89l45 45l90 -90zM870 237l-128 13l7 64l128 -13z" />
    <glyph glyph-name="renwuchaxun" unicode="&#xe625;" 
d="M518 -96h-326q-38 0 -67 29t-29 67v768q0 38 29 67t67 29h640q38 0 67 -29t29 -67v-390q0 -15 -9 -23.5t-23 -8.5t-23 8.5t-9 23.5v390q0 14 -9 23t-23 9h-640q-14 0 -23 -9t-9 -23v-768q0 -14 9 -23t23 -9h326q15 0 23.5 -9t8.5 -23t-8.5 -23t-23.5 -9zM608 32
q-77 0 -134.5 57.5t-57.5 134.5q0 40 15 75.5t43 58.5q57 58 136.5 58t131.5 -58q58 -57 58 -134q0 -40 -15 -75.5t-43 -58.5q-23 -28 -58.5 -43t-75.5 -15zM608 352q-51 0 -89.5 -38.5t-38.5 -89.5t38.5 -89.5t89.5 -38.5t89.5 38.5t38.5 89.5t-38 90q-14 18 -39 28t-51 10
zM838 -38q-19 0 -25 6l-90 96q-9 10 -9 22.5t9.5 22t22 9.5t22.5 -9l90 -90q9 -9 9 -22t-9 -23q-13 -12 -20 -12zM768 608h-512q-14 0 -23 9t-9 23t9 23t23 9h512q14 0 23 -9t9 -23t-9 -23t-23 -9zM480 416h-224q-14 0 -23 9t-9 23t9 23t23 9h224q14 0 23 -9t9 -23t-9 -23
t-23 -9zM320 224h-64q-14 0 -23 9t-9 23t9 23t23 9h64q14 0 23 -9t9 -23t-9 -23t-23 -9z" />
    <glyph glyph-name="yonghuBI" unicode="&#xe626;" 
d="M909 -96h-768q-39 0 -67.5 29t-28.5 67v768q0 38 28.5 67t67.5 29h768q38 0 67 -29t29 -67v-768q0 -40 -27 -68t-69 -28zM147 800q-14 0 -23 -9t-9 -23v-768q0 -14 9 -23t23 -9h768q15 0 23.5 9t8.5 23v768q0 14 -8.5 23t-23.5 9h-768zM435 512h64v-384h-64v384zM563 384
h64v-256h-64v256zM685 256h64v-128h-64v128zM307 640h64v-512h-64v512z" />
    <glyph glyph-name="zhibiaotiqu" unicode="&#xe627;" 
d="M512 205q-14 0 -23 8.5t-9 23.5v512q0 14 9 23t23 9t23 -9t9 -23v-512q0 -15 -9 -23.5t-23 -8.5zM742 525q-19 0 -25 6l-179 179q-13 13 -26 13l-19 -6l-179 -186q-10 -9 -23 -9t-22 9q-19 19 -7 45l186 186q38 25 64 25q32 0 70 -25l180 -186q9 -10 9 -22.5t-9 -22.5
q-7 -6 -20 -6zM870 -19h-716q-38 0 -64 28.5t-26 67.5v352q0 14 9 23t23 9t23 -9t9 -23v-352q0 -14 8 -23t18 -9h710q10 0 18 9t8 23v352q0 14 8.5 23t23.5 9t26.5 -9t11.5 -23v-352q0 -39 -26 -67.5t-64 -28.5z" />
    <glyph glyph-name="xiugai" unicode="&#xe628;" 
d="M813 -96h-640q-67 0 -113.5 46.5t-46.5 113.5v640q0 67 46.5 113.5t113.5 46.5h493q15 0 26.5 -9t11.5 -23t-9 -23t-23 -9h-499q-38 0 -64 -28.5t-26 -67.5v-640q0 -38 29 -67t67 -29h640q39 0 67.5 29t28.5 67v435q0 15 9 23.5t23.5 8.5t23 -8.5t8.5 -23.5v-435
q-5 -68 -52 -114t-114 -46zM275 128q-13 0 -25 13q-10 9 -10 22t10 23l704 640q9 9 22 9t22.5 -9.5t9.5 -22.5t-10 -22l-704 -640q-6 -13 -19 -13z" />
    <glyph glyph-name="xiangxi" unicode="&#xe629;" 
d="M800 -96h-576q-67 0 -113.5 46.5t-46.5 113.5v640q0 67 46.5 113.5t113.5 46.5h576q67 0 113.5 -46.5t46.5 -113.5v-640q0 -67 -46.5 -113.5t-113.5 -46.5zM224 800q-38 0 -67 -29t-29 -67v-640q0 -38 29 -67t67 -29h576q38 0 67 29t29 67v640q0 38 -29 67t-67 29h-576z
M288 544q0 14 9 23t23 9h384q14 0 23 -9t9 -23t-9 -23t-23 -9h-384q-14 0 -23 9t-9 23zM288 352q0 14 9 23t23 9h320q14 0 23 -9t9 -23t-9 -23t-23 -9h-320q-14 0 -23 9t-9 23zM288 160q0 14 9 23t23 9h128q14 0 23 -9t9 -23t-9 -23t-23 -9h-128q-14 0 -23 9t-9 23z" />
    <glyph glyph-name="shouquan" unicode="&#xe62a;" 
d="M525 288q-120 0 -204 84t-84 204t84 204t204 84t204 -84t84 -204t-84 -204t-204 -84zM525 800q-91 0 -157.5 -66.5t-66.5 -157.5t66.5 -157.5t157.5 -66.5t157.5 66.5t66.5 157.5t-66.5 157.5t-157.5 66.5zM141 -96q-15 0 -23.5 9t-8.5 23q0 113 55.5 209t151 151.5
t209.5 55.5q152 0 275 -102q10 -10 10 -23t-10 -22.5t-22.5 -9.5t-22.5 10q-99 89 -237 89q-94 0 -175 -47.5t-129 -128.5t-48 -176q5 -18 -2.5 -28t-22.5 -10zM640 -96l-141 141q-9 9 -9 22t9.5 22.5t22 9.5t22.5 -9l96 -96l294 294q10 10 23 10t22.5 -10t9.5 -22.5
t-10 -22.5z" />
    <glyph glyph-name="sousuo" unicode="&#xe630;" 
d="M461 98q-132 0 -226 94q-45 45 -69.5 103.5t-24.5 122.5t24.5 122.5t69.5 103.5q60 61 143 82.5t165.5 0t143.5 -82.5q45 -45 69 -105t24 -121t-24 -120.5t-69 -105.5q-44 -44 -104.5 -69t-121.5 -25zM461 695q-115 0 -196 -81q-34 -33 -58 -90t-24 -104v-2
q0 -54 21.5 -106t60.5 -90q80 -80 196 -80t196 80t80 196t-80 196q-75 81 -196 81zM862 30q-13 0 -17 4l-171 171q-6 6 -6 14.5t6.5 15t15 6.5t14.5 -6l171 -171q6 -6 6 -14.5t-6 -15.5q-5 -4 -13 -4z" />
    <glyph glyph-name="shanchu" unicode="&#xe633;" 
d="M646 525q0 32 -38 32q-14 0 -23 -9t-9 -23v-391q0 -32 38 -32q15 0 27 9.5t12 22.5v391h-7zM96 749q-14 0 -23 -9t-9 -23.5t9 -23t23 -8.5h826q14 0 23 8.5t9 23t-9 23.5t-23 9h-826zM666 806q15 0 26.5 10.5t11.5 28.5q0 14 -12 26t-26 12h-308q-38 -13 -38 -38
q0 -15 12 -27t26 -12h308zM454 141v384q0 32 -38 32q-14 0 -23 -9t-9 -23v-391q0 -32 38 -32q32 11 32 39zM723 -115h-422q-58 0 -99.5 42.5t-41.5 104.5v461q0 14 9 23t23 9t23 -9t9 -23v-461q0 -34 22 -58.5t55 -24.5h429q29 0 52.5 25t23.5 58v461q0 14 9 23t23.5 9
t23 -9t8.5 -23v-461q-4 -62 -46.5 -104.5t-100.5 -42.5z" />
    <glyph glyph-name="ziyuanguanli" unicode="&#xe635;" 
d="M480 416h-288q-67 0 -113.5 46.5t-46.5 113.5v128q0 67 46.5 113.5t113.5 46.5h128q67 0 113.5 -46.5t46.5 -113.5v-288zM192 800q-38 0 -67 -29t-29 -67v-128q0 -38 29 -67t67 -29h224v224q0 38 -29 67t-67 29h-128zM320 -96h-128q-67 0 -113.5 46.5t-46.5 113.5v128
q0 67 46.5 113.5t113.5 46.5h288v-288q0 -67 -46.5 -113.5t-113.5 -46.5zM192 288q-38 0 -67 -29t-29 -67v-128q0 -38 29 -67t67 -29h128q38 0 67 29t29 67v224h-224zM832 416h-288v288q0 67 46.5 113.5t113.5 46.5h128q67 0 113.5 -46.5t46.5 -113.5v-128
q0 -67 -46.5 -113.5t-113.5 -46.5zM608 480h224q38 0 67 29t29 67v128q0 38 -29 67t-67 29h-128q-38 0 -67 -29t-29 -67v-224zM832 -96h-128q-67 0 -113.5 46.5t-46.5 113.5v288h288q67 0 113.5 -46.5t46.5 -113.5v-128q0 -67 -46.5 -113.5t-113.5 -46.5zM608 288v-224
q0 -38 29 -67t67 -29h128q38 0 67 29t29 67v128q0 38 -29 67t-67 29h-224z" />
    <glyph glyph-name="shujuyuanguanli" unicode="&#xe637;" 
d="M928 64h-64v653h64v-653zM160 64h-64v653h64v-653zM512 544q-105 0 -198.5 18t-155.5 55.5t-62 86.5q0 43 46 77.5t119.5 52t162 25.5t177 0t162 -25.5t119.5 -52t46 -77.5q0 -49 -62 -86.5t-155.5 -55.5t-198.5 -18zM512 800q-66 0 -124.5 -7t-99 -17.5t-70.5 -23.5
t-44 -25.5t-14 -22.5t14 -22.5t44 -25.5t70.5 -23.5t99 -17.5t124.5 -7t124.5 7t99 17.5t70.5 23.5t44 25.5t14 22.5t-14 22.5t-44 25.5t-70.5 23.5t-99 17.5t-124.5 7zM512 109q-105 0 -198.5 18t-155.5 55.5t-62 86.5h64q0 -10 14 -22.5t44 -25.5t70.5 -23.5t99 -17.5
t124.5 -7t124.5 7t99 17.5t70.5 23.5t44 25.5t14 22.5h64q0 -49 -62 -86.5t-155.5 -55.5t-198.5 -18zM512 326q-105 0 -198.5 18.5t-155.5 55.5t-62 86h64q0 -10 14 -22t44 -25t70.5 -24t99 -18t124.5 -7t124.5 7t99 18t70.5 24t44 25t14 22h64q0 -49 -62 -86t-155.5 -55.5
t-198.5 -18.5zM512 -96q-105 0 -198.5 18t-155.5 55.5t-62 86.5h64q0 -10 14 -22.5t44 -25.5t70.5 -23.5t99 -17.5t124.5 -7t124.5 7t99 17.5t70.5 23.5t44 25.5t14 22.5h64q0 -49 -62 -86.5t-155.5 -55.5t-198.5 -18z" />
    <glyph glyph-name="cebianlan" unicode="&#xe639;" 
d="M960 608h-896q-14 0 -23 9t-9 23t9 23t23 9h896q14 0 23 -9t9 -23t-9 -23t-23 -9zM960 352h-896q-14 0 -23 9t-9 23t9 23t23 9h896q14 0 23 -9t9 -23t-9 -23t-23 -9zM960 96h-896q-14 0 -23 9t-9 23t9 23t23 9h896q14 0 23 -9t9 -23t-9 -23t-23 -9z" />
    <glyph glyph-name="shangyiye" unicode="&#xe63a;" 
d="M653 64q-19 0 -26 6l-301 314l308 307q9 10 22 10t22.5 -9.5t9.5 -22.5t-10 -23l-262 -262l262 -262q10 -10 10 -23t-10 -22q-12 -13 -25 -13z" />
    <glyph glyph-name="xiayiye" unicode="&#xe63b;" 
d="M358 64q20 0 26 6l301 314l-307 307q-10 10 -23 10t-22.5 -9.5t-9.5 -22.5t10 -23l262 -262l-262 -262q-10 -10 -10 -23t10 -22q13 -13 25 -13z" />
    <glyph glyph-name="zhibiaopeizhi" unicode="&#xe63e;" 
d="M512 794q23 0 36 -3l10 -56q4 -21 18 -37t33 -22q34 -13 41 -18q16 -8 36 -8q22 0 44 13l46 33q36 -30 48 -48l-33 -46q-26 -39 -5 -80q10 -16 18 -41q16 -43 59 -51l56 -10q0 -7 1.5 -18.5t1.5 -17.5q0 -23 -3 -36l-56 -10q-21 -4 -37 -18t-22 -33q-13 -34 -18 -41
q-21 -41 5 -80l33 -46q-30 -36 -48 -48l-46 33q-16 13 -44 13q-17 0 -36 -8q-16 -10 -41 -18q-43 -16 -51 -59l-10 -56q-7 0 -18.5 -1.5t-17.5 -1.5q-23 0 -36 3l-10 56q-4 21 -18 37t-33 22q-34 13 -41 18q-16 8 -36 8q-22 0 -44 -13l-46 -33q-36 30 -48 48l33 46
q26 39 5 80q-10 16 -18 41q-16 43 -59 51l-56 10q0 7 -1.5 18.5t-1.5 17.5q0 23 3 36l56 10q21 4 37 18t22 33q13 34 18 41q21 41 -5 80l-33 46q30 36 48 48l46 -33q16 -13 44 -13q17 0 36 8q16 10 41 18q43 16 51 59l10 56q13 3 36 3zM512 845q-20 0 -61 -5q-9 -2 -15 -8
t-6 -13l-13 -77q-4 -17 -18 -20q-23 -8 -48 -21q-3 -2 -13 -2q-5 0 -15 5l-62 44q-10 5 -15 5t-16 -5q-49 -38 -87 -88q-13 -13 0 -30l44 -62q7 -11 2 -25q-15 -31 -20 -49q-3 -14 -21 -18l-76 -13q-21 -5 -21 -20q-5 -41 -5 -61.5t5 -61.5q2 -8 7.5 -14t13.5 -6l76 -13
q18 -5 21 -18q8 -23 20 -49q10 -14 -2 -25l-44 -62q-9 -18 0 -31q38 -49 87 -87q11 -5 16 -5t15 5l62 44q10 5 15 5q8 0 13 -3q30 -15 48 -20q14 -3 18 -21l13 -76q5 -21 21 -21q41 -5 61 -5t61 5q21 5 21 21l13 76q4 18 18 21q23 8 48 20q3 3 13 3q5 0 15 -5l62 -44
q10 -5 15 -5t16 5q49 38 87 87q13 14 0 31l-44 62q-7 11 -2 25q15 31 20 49q3 13 21 18l76 13q21 5 21 20q5 41 5 61.5t-5 61.5q-2 8 -7.5 14t-13.5 6l-76 13q-18 4 -21 18q-8 23 -20 49q-10 14 2 25l44 62q9 18 0 30q-38 50 -87 88q-11 5 -16 5t-15 -5l-62 -44
q-10 -5 -15 -5q-8 0 -13 2q-30 16 -48 21q-14 3 -18 20l-13 77q-2 9 -7.5 15t-13.5 6q-41 5 -61 5zM512 486q42 0 72 -30t30 -72t-30 -72t-72 -30t-72 30t-30 72t30 72t72 30zM512 538q-63 0 -108.5 -45.5t-45.5 -108.5t45.5 -108.5t108.5 -45.5t108.5 45.5t45.5 108.5
t-45.5 108.5t-108.5 45.5z" />
    <glyph glyph-name="fenzu" unicode="&#xe63f;" 
d="M704 32h-512q-67 0 -113.5 46.5t-46.5 113.5v512q0 67 46.5 113.5t113.5 46.5h512q67 0 113.5 -46.5t46.5 -113.5v-512q0 -67 -46.5 -113.5t-113.5 -46.5zM192 800q-38 0 -67 -29t-29 -67v-512q0 -38 29 -67t67 -29h512q38 0 67 29t29 67v512q0 38 -29 67t-67 29h-512z
M832 -96h-512q-14 0 -23 9t-9 23t9 23t23 9h512q38 0 67 29t29 67v512q0 14 9 23t23 9t23 -9t9 -23v-512q0 -67 -46.5 -113.5t-113.5 -46.5z" />
    <glyph glyph-name="bumenguanli" unicode="&#xe640;" 
d="M608 467h-192q-38 0 -67 29t-29 67v192q0 39 29 67.5t67 28.5h192q38 0 67 -28.5t29 -67.5v-192q0 -42 -28 -69t-68 -27zM416 787q-14 0 -23 -8.5t-9 -23.5v-192q0 -14 9 -23t23 -9h192q14 0 23 9t9 23v192q0 15 -9 23.5t-23 8.5h-192zM224 -77h-64q-38 0 -67 29t-29 67
v64q0 39 29 67.5t67 28.5h64q38 0 67 -28.5t29 -67.5v-64q0 -42 -28 -69t-68 -27zM160 115q-14 0 -23 -8.5t-9 -23.5v-64q0 -14 9 -23t23 -9h64q14 0 23 9t9 23v64q0 15 -9 23.5t-23 8.5h-64zM864 -77h-64q-38 0 -67 29t-29 67v64q0 39 29 67.5t67 28.5h64q38 0 67 -28.5
t29 -67.5v-64q0 -42 -28 -69t-68 -27zM800 115q-14 0 -23 -8.5t-9 -23.5v-64q0 -14 9 -23t23 -9h64q14 0 23 9t9 23v64q0 15 -9 23.5t-23 8.5h-64zM544 -77h-64q-38 0 -67 29t-29 67v64q0 39 29 67.5t67 28.5h64q38 0 67 -28.5t29 -67.5v-64q0 -42 -28 -69t-68 -27zM480 115
q-14 0 -23 -8.5t-9 -23.5v-64q0 -14 9 -23t23 -9h64q14 0 23 9t9 23v64q0 15 -9 23.5t-23 8.5h-64zM224 115h-64v128q0 39 29 67.5t67 28.5h512q38 0 67 -28.5t29 -67.5v-128h-64v128q0 15 -9 23.5t-23 8.5h-512q-14 0 -23 -8.5t-9 -23.5v-128zM480 499h64v-320h-64v320z
" />
    <glyph glyph-name="xiazai" unicode="&#xe647;" 
d="M960 -90h-896q-14 0 -23 9t-9 23.5t9 23t23 8.5h896q14 0 23 -8.5t9 -23t-9 -23.5t-23 -9zM518 77q-44 0 -70 25l-320 320q-10 10 -10 23t10 22.5t22.5 9.5t22.5 -10l320 -320q9 -9 22 -9t23 9l320 320q9 10 22 10t22.5 -9.5t9.5 -22.5t-10 -23l-320 -320
q-38 -25 -64 -25zM518.5 83q-14.5 0 -23.5 9t-9 23v711q0 14 9 23t23.5 9t23 -9t8.5 -23v-711q0 -14 -8.5 -23t-23 -9z" />
    <glyph glyph-name="zhongzuo" unicode="&#xe648;" 
d="M864 -6h-512q-120 0 -204 84t-84 204t84 204t204 84h512q14 0 23 -9t9 -23.5t-9 -23t-23 -8.5h-512q-95 0 -159.5 -66t-64.5 -158t66.5 -158t157.5 -66h512q14 0 23 -9t9 -23t-10.5 -23t-21.5 -9zM736 314q-19 0 -26 6q-9 10 -9 22.5t9 22.5l199 198q9 10 22 10
t22.5 -9.5t9.5 -22.5t-9 -23l-199 -198q-3 0 -9.5 -3t-9.5 -3zM928 512q-19 0 -26 6l-198 199q-10 9 -10 22t10 22.5t22.5 9.5t22.5 -9l198 -199q10 -9 10 -22t-10 -23q-6 -6 -19 -6z" />
    <glyph glyph-name="shenhe" unicode="&#xe649;" 
d="M768 -96h-512q-67 0 -113.5 46.5t-46.5 113.5v512l282 288h390q67 0 113.5 -46.5t46.5 -113.5v-640q0 -67 -46.5 -113.5t-113.5 -46.5zM160 550v-486q0 -38 29 -67t67 -29h512q38 0 67 29t29 67v640q0 38 -29 67t-67 29h-365zM301 544h-154v64h154q23 0 37 15.5t14 35.5
v173h64v-173q0 -48 -33.5 -81.5t-81.5 -33.5zM435 186q-19 0 -25 6l-128 141q-10 9 -10 22t9.5 22.5t22.5 9.5t22 -9l135 -135q9 -9 9 -22t-9 -23q-13 -12 -26 -12zM435 186q-19 0 -25 6q-10 10 -10 22.5t10 22.5l275 275q9 10 22 10t22.5 -10t9.5 -22.5t-9 -22.5l-269 -269
q-13 -12 -26 -12z" />
    <glyph glyph-name="icon-p_gongyingshang" unicode="&#xe601;" 
d="M902 257h-37v93q0 26 -18 44.5t-44 18.5h-271v98h38q26 0 44 18t18 43v117q0 25 -18 43.5t-44 18.5h-116q-26 0 -44 -18.5t-18 -43.5v-117q0 -25 18 -43t44 -18h38v-98h-270q-26 0 -44 -18.5t-18 -44.5v-93h-38q-25 0 -43.5 -18t-18.5 -43v-117q0 -25 18.5 -43.5
t43.5 -18.5h117q25 0 43 18.5t18 43.5v117q0 25 -18 43t-43 18h-38v93q0 9 6 15.5t15 6.5h270v-115h-38q-26 0 -44 -18t-18 -43v-117q0 -25 18 -43.5t44 -18.5h116q26 0 44 18.5t18 43.5v117q0 25 -18 43t-44 18h-38v115h271q9 0 15 -6.5t6 -15.5v-93h-39q-25 0 -43 -18
t-18 -43v-117q0 -25 18 -43.5t43 -18.5h117q25 0 43.5 18.5t18.5 43.5v117q0 25 -18.5 43t-43.5 18zM433 572v117q0 9 6 15t15 6h116q9 0 15 -6t6 -15v-117q0 -8 -6 -14t-15 -6h-116q-9 0 -15 6t-6 14zM259 196v-117q0 -9 -6 -15t-14 -6h-117q-9 0 -15 6t-6 15v117q0 8 6 14
t15 6h117q8 0 14 -6t6 -14zM591 196v-117q0 -9 -6 -15t-15 -6h-116q-9 0 -15 6t-6 15v117q0 8 6 14t15 6h116q9 0 15 -6t6 -14zM923 79q0 -9 -6 -15t-15 -6h-117q-8 0 -14 6t-6 15v117q0 8 6 14t14 6h117q9 0 15 -6t6 -14v-117z" />
    <glyph glyph-name="icon-p_gongzuoqingdan" unicode="&#xe602;" 
d="M302.5 635q8.5 0 14.5 6t6 14v149q0 8 -6 14t-14.5 6t-14.5 -6t-6 -14v-149q0 -8 6 -14t14.5 -6zM721.5 635q8.5 0 14.5 6t6 14v149q0 8 -6 14t-14.5 6t-14.5 -6t-6 -14v-149q0 -8 6 -14t14.5 -6zM253 355l185 -185q6 -6 15 -6t15 6l303 304q6 5 6 14t-6 15q-5 6 -13.5 6
t-15.5 -6l-289 -290l-171 171q-6 6 -14.5 6t-14.5 -6q-6 -5 -6 -14t6 -15zM913 751h-118q-9 0 -15 -6t-6 -14.5t6 -14.5t15 -6h118q10 0 16.5 -7t6.5 -16v-700q0 -10 -6.5 -16.5t-16.5 -6.5h-802q-10 0 -16.5 6.5t-6.5 16.5v700q0 9 6.5 16t16.5 7h118q9 0 15 6t6 14.5
t-6 14.5t-15 6h-118q-27 0 -45.5 -19t-18.5 -45v-700q0 -26 18.5 -45t45.5 -19h802q27 0 45.5 19t18.5 45v700q0 26 -18.5 45t-45.5 19zM375 710h273q9 0 15 6t6 14.5t-6 14.5t-15 6h-273q-9 0 -15 -6t-6 -14.5t6 -14.5t15 -6z" />
    <glyph glyph-name="icon-p_dangqianmrpweidu" unicode="&#xe603;" 
d="M896 824h-767q-25 0 -43 -18t-18 -43v-758q0 -25 18 -43t43 -18h766q25 0 43 17.5t19 43.5v758q0 25 -18 43t-43 18zM129 783h767q8 0 14 -6t6 -14v-195h-807v195q0 8 6 14t14 6zM386 269v258h252v-258h-252zM638 228v-243h-252v243h252zM345 269h-236v258h236v-258z
M679 527h237v-258h-237v258zM109 5v223h236v-243h-216q-8 0 -14 6t-6 14zM895 -15h-216v243h237v-222q0 -9 -6 -15t-15 -6z" />
    <glyph glyph-name="icon-p_falvshiti" unicode="&#xe604;" 
d="M982 -10h-84v561v1q-3 58 -56 100q-28 22 -85 38q-4 1 -26 8q-33 11 -49 17q-10 3 -29 9t-28 9v66q0 10 -8.5 16.5t-18.5 2.5q-20 -5 -61 -17t-61.5 -17.5t-61.5 -17.5t-62 -17q-27 -7 -48 -14q-67 -17 -95 -27q-35 -14 -56.5 -36.5t-24.5 -49.5q-1 -6 -1 -34v-598h-85
q-8 0 -14 -6t-6 -14.5t6 -14.5t14 -6h940q8 0 14 6t6 14.5t-6 14.5t-14 6zM670 675l49 -16q15 -5 26 -8q54 -16 73 -31q39 -29 40 -70v-560h-233v700q7 -2 22 -7.5t23 -7.5zM169 590v27q2 18 18 32t36 21q26 9 92 26q33 9 50 14q20 5 61 17t61 17q17 5 49 14t49 14v-781
h-416v583v16zM350 613h-60v-60h60v60zM340 563h-40v40h40v-40zM350 487h-60v-60h60v60zM340 437h-40v40h40v-40zM350 361h-60v-60h60v60zM340 311h-40v40h40v-40zM350 234h-60v-60h60v60zM340 184h-40v40h40v-40zM489 613h-60v-60h60v60zM479 563h-40v40h40v-40zM489 487
h-60v-60h60v60zM479 437h-40v40h40v-40zM489 361h-60v-60h60v60zM479 311h-40v40h40v-40zM489 234h-60v-60h60v60zM479 184h-40v40h40v-40zM775 512h-60v-60h60v60zM765 462h-40v40h40v-40zM775 378h-60v-61h60v61zM765 328h-40v40h40v-40zM775 244h-60v-61h60v61zM765 194
h-40v39h40v-39z" />
    <glyph glyph-name="icon-p_dangqiankucun" unicode="&#xe605;" 
d="M943 472l-365 307q-27 30 -67 34t-73 -19q-10 -7 -17 -16l-1 -1l-340 -324q-6 -6 -6 -14.5t6 -14.5t14 -6t15 6l29 29v-507h41v546l282 268q1 0 1 1q17 12 38.5 12t37.5 -13l319 -268v-547h41v512l18 -16q7 -5 14 -5q9 0 15 7q13 16 -2 29zM353 138h-93q-13 0 -22 -8.5
t-9 -21.5v-90q0 -13 9 -21.5t22 -8.5h93q13 0 22 8.5t9 21.5v90q0 13 -9 21.5t-22 8.5zM364 18q0 -10 -11 -10h-93q-10 0 -10 10v90q0 10 10 10h93q11 0 11 -10v-90zM353 312h-93q-13 0 -22 -8.5t-9 -21.5v-89q0 -14 9 -22.5t22 -8.5h93q13 0 22 8.5t9 22.5v89q0 13 -9 21.5
t-22 8.5zM364 193q0 -11 -11 -11h-93q-10 0 -10 11v89q0 10 10 10h93q11 0 11 -10v-89zM564 138h-93q-13 0 -22 -8.5t-9 -21.5v-90q0 -13 9 -21.5t22 -8.5h93q13 0 22 8.5t9 21.5v90q0 13 -9 21.5t-22 8.5zM574 18q0 -10 -10 -10h-93q-10 0 -10 10v90q0 10 10 10h93
q10 0 10 -10v-90zM564 312h-93q-13 0 -22 -8.5t-9 -21.5v-89q0 -14 9 -22.5t22 -8.5h93q13 0 22 8.5t9 22.5v89q0 13 -9 21.5t-22 8.5zM574 193q0 -11 -10 -11h-93q-10 0 -10 11v89q0 10 10 10h93q10 0 10 -10v-89zM353 487h-93q-13 0 -22 -8.5t-9 -21.5v-89q0 -13 9 -22
t22 -9h93q13 0 22 9t9 22v89q0 13 -9 21.5t-22 8.5zM364 368q0 -11 -11 -11h-93q-10 0 -10 11v89q0 10 10 10h93q11 0 11 -10v-89zM775 138h-93q-13 0 -22 -8.5t-9 -21.5v-90q0 -13 9 -21.5t22 -8.5h93q13 0 22 8.5t9 21.5v90q0 13 -9 21.5t-22 8.5zM785 18q0 -10 -10 -10
h-93q-10 0 -10 10v90q0 10 10 10h93q10 0 10 -10v-90z" />
    <glyph glyph-name="icon-p_gongchangdanyuan" unicode="&#xe606;" 
d="M246 186h-77q-6 0 -10 -4t-4 -10v-139q0 -6 4 -10.5t10 -4.5h77q6 0 10 5t4 11v138q0 6 -4 10t-10 4zM240 39h-65v127h65v-127zM416 186h-77q-6 0 -10 -4t-4 -10v-139q0 -6 4 -10.5t10 -4.5h76q6 0 10.5 5t4.5 11v138q0 5 -4.5 9.5t-9.5 4.5zM410 39h-65v127h65v-127z
M593 186h-77q-5 0 -9.5 -4.5t-4.5 -9.5v-139q0 -6 4.5 -10.5t9.5 -4.5h77q6 0 10 5t4 11v138q0 6 -4 10t-10 4zM587 39h-65v127h65v-127zM950 453l-194 1l-36 97v276q0 9 -6 15t-15 6h-143q-8 0 -14 -6t-6 -15v-331l-77 -43h-37l-36 99v275q0 9 -6 15t-14 6h-148
q-8 0 -14 -6t-6 -15v-325l-83 -49h-41q-9 0 -15 -6t-6 -15v-464q0 -19 14 -33t33 -14h823q20 0 34 14t14 33v464q0 9 -6 15t-15 6zM121 412q5 0 10 3l97 58q1 0 1.5 0.5l0.5 0.5l1 1l1 1l1 1q0 1 0.5 1.5t0.5 1t1 1l1 0.5q0 1 1 2q0 1 1 2v2v2v318h106v-262q0 -1 1 -2v-1
l43 -117q5 -13 20 -13h56q6 0 10 3l92 51h1q1 0 1.5 0.5l0.5 0.5l1 1l1 1q0 1 0.5 1.5t0.5 1t0.5 1t0.5 1t0.5 1l0.5 0.5q0 1 1 2q0 1 2 2v2v2v324h102v-259q0 -4 2 -8v-2l41 -112q5 -13 19 -13l189 -1v-104h-836v104h27zM923 -38h-823q-6 0 -6 6v299h836v-299q0 -6 -7 -6z
" />
    <glyph glyph-name="icon-p_gongyingshangfenpei" unicode="&#xe607;" 
d="M807 543q64 0 109 45t45 108.5t-45 108.5t-109 45t-109 -45t-45 -109q0 -22 7 -47l-331 -190q-46 49 -112 49q-64 0 -109 -45t-45 -108.5t45 -108.5t109 -45q36 0 68 16t53 43l218 -124q-14 -30 -14 -64q0 -64 45 -109t108.5 -45t108.5 45t45 108.5t-45 108.5t-109 45
q-71 0 -116 -54l-220 125q12 29 12 58q0 39 -18 72l326 186q21 -32 55 -50.5t73 -18.5zM695 184q47 0 80 -32.5t33 -79.5t-33 -80t-80 -33t-79.5 33t-32.5 80t32.5 79.5t79.5 32.5zM217 242q-47 0 -80 32.5t-33 79.5t33 80t80 33t80 -33t33 -80t-33 -79.5t-80 -32.5z
M807 809q47 0 80 -33t33 -80t-33 -79.5t-80 -32.5t-80 32.5t-33 79.5t33 80t80 33z" />
    <glyph glyph-name="icon-p_kucunbaobiao" unicode="&#xe608;" 
d="M878 162h-81q-17 0 -29 -12t-12 -29v-180h41v180h81v-180h41v180q0 17 -12.5 29t-28.5 12zM662 282h-81q-17 0 -29 -12t-12 -29v-300h41v300h81v-300h40v300q0 17 -12 29t-28 12zM444 420h-80q-17 0 -29 -12t-12 -29v-439h41v439h80v-438h41v438q0 17 -12 29t-29 12z
M228 536h-81q-16 0 -28.5 -12.5t-12.5 -28.5v-555h41v555h81v-554h41v554q0 16 -12 28.5t-29 12.5zM930 438q0 9 -6 15t-14.5 6t-14.5 -6t-6 -15l-1 -113l-338 304q-15 13 -29 -1l-89 -89l-303 303q-6 6 -14.5 6t-14.5 -6t-6 -14.5t6 -14.5l319 -317q6 -7 14 -7t14 7l91 90
l317 -286h-106q-9 0 -15 -6t-6 -14.5t6 -14.5t15 -6h162q12 2 16 12q3 7 0 14z" />
    <glyph glyph-name="icon-p_lianxirenguanli" unicode="&#xe609;" 
d="M744 370q44 26 69.5 72.5t25.5 104.5q0 84 -60.5 144.5t-144.5 60.5q-59 0 -108 -31q-60 45 -133 45q-92 0 -157 -65t-65 -157q0 -64 33 -117t88 -81q-103 -34 -168.5 -123.5t-65.5 -200.5q0 -9 6 -15t14.5 -6t14.5 6t6 15q0 119 82 206t200 94h12q11 0 18 1
q120 -4 205 -92t85 -209q0 -9 6 -15t14.5 -6t14.5 6t6 15q0 113 -68 204t-174 123q52 29 83.5 81t31.5 114q0 86 -57 148q35 19 76 19q67 0 115.5 -48.5t48.5 -115.5q0 -64 -38 -109.5t-96 -53.5h-18q-6 0 -12 -4q-11 -6 -11 -19q0 -8 6 -14t14 -6q15 0 23 1
q110 -8 184.5 -89.5t74.5 -197.5q0 -8 6 -14t14.5 -6t14.5 6t6 14q0 112 -61.5 198t-160.5 117zM409 364h-27q-72 3 -121 55.5t-49 124.5q0 75 53 128t128 53t128 -53t53 -128q0 -71 -47.5 -122.5t-117.5 -57.5z" />
    <glyph glyph-name="icon-p_jihuagongyingzhuangkuang" unicode="&#xe60a;" 
d="M348 341h-47q-10 0 -16 -5.5t-6 -14.5v-92h20v92h49q2 0 2 -2v-90h21v92q0 7 -7 13.5t-16 6.5zM473 401h-47q-10 0 -16.5 -5.5t-6.5 -14.5v-152h21v152h49v0l2 -1v-151h21v152q0 8 -7 14t-16 6zM599 472h-47q-10 0 -16.5 -5.5t-6.5 -14.5v-223h21v223h49l2 -1v-222h21
v223q0 7 -7 13.5t-16 6.5zM724 530h-47q-10 0 -16.5 -5.5t-6.5 -14.5v-281h21v281h49l2 -1v-280h20v281q0 8 -6.5 14t-15.5 6zM751 681q-2 7 -10 7h-92q-10 0 -10 -10t10 -10h63l-186 -146l-54 47q-7 5 -13 0l-184 -160q-7 -8 -1 -15q4 -3 9 -3q3 0 7 2l176 155l53 -46
q7 -5 13 0l198 155l1 -59q0 -4 3.5 -7t6.5 -3q11 0 11 10l-1 77v2.5v3.5zM910 756h-796q-26 0 -44 -18t-18 -44v-481q0 -25 18 -43t44 -18h796q26 0 44 17.5t18 42.5v482q0 26 -18 44t-44 18zM931 212q0 -8 -6 -13.5t-15 -5.5h-796q-9 0 -15 6t-6 14v481q0 9 6 15t15 6h796
q9 0 15 -6t6 -15v-482zM829 62q-9 12 -23 12h-158q1 2 1 7q0 11 -7.5 19t-18.5 8h-222q-11 0 -18.5 -8t-7.5 -19q0 -5 1 -7h-151q-6 0 -11.5 -3t-8.5 -5.5t-3 -3.5l-22 -23q-4 -4 -2 -11q3 -6 9 -6h656q7 0 9 6q3 6 -2 11q-13 13 -21 23zM211 42l6 6q5 5 8 5h174q3 0 4 1
l3 1q7 4 5 12t-11 8q-6 0 -6 6t6 6h222q6 0 6 -6t-6 -6q-9 0 -11 -8q-1 -8 5 -12l2 -1q2 -1 5 -1h179q5 0 9 -4t6 -7h-606z" />
    </font>
</defs>
</svg>
